<?xml version="1.0" encoding="UTF-8"?>
<svg id="Layer_1" xmlns="http://www.w3.org/2000/svg" version="1.1" viewBox="0 0 835.2 698.5">
  <!-- Generator: Adobe Illustrator 30.1.0, SVG Export Plug-In . SVG Version: 2.1.1 Build 136)  -->
  <defs>
    <style>
      .st0 {
        fill: #fff;
      }
    </style>
  </defs>
  <path class="st0" d="M218.9,258l-23.4,410.1c-.9,16.5,12.2,30.3,28.7,30.3h0c16.8,0,30-14.3,28.6-31.1l-33.8-409.4ZM33.1,70.5L0,480c-1.3,16.7,11.9,31,28.6,31h0c16.5,0,29.6-13.9,28.7-30.4L33.1,70.5ZM540.5,0l-33,409.5c-1.3,16.7,11.9,31,28.6,31h0c16.5,0,29.6-13.9,28.7-30.4L540.5,0ZM662.7,51.6l-23.4,410.1c-.9,16.5,12.2,30.3,28.7,30.3s30-14.3,28.6-31.1l-33.8-409.4ZM835.1,592.6l-21.1-410.3-36.2,409.3c-1.5,16.8,11.7,31.2,28.6,31.2s29.5-13.8,28.7-30.2Z"/>
</svg>