<svg width="273" height="204" viewBox="0 0 273 204" fill="none" xmlns="http://www.w3.org/2000/svg">
<path d="M11.6645 201.855C11.0687 203.262 8.74583 203.457 6.55907 202.565C4.21727 201.675 2.94177 199.68 3.54026 198.428L103.903 4.27028C104.498 2.86338 106.821 2.66767 109.008 3.5605C111.195 4.45332 112.625 6.44551 112.027 7.69729L11.5094 201.858L11.6645 201.855Z" fill="#1D1D1B"/>
<path d="M105.724 73.1254C105.439 74.5269 103.282 75.3404 100.793 74.9183C98.3043 74.4963 96.7269 72.9721 97.0099 71.4155L117.864 4.48535C118.149 3.08387 120.306 2.27039 122.795 2.69245C125.284 3.1145 127.016 4.63592 126.733 6.19252L105.879 73.1227L105.724 73.1254Z" fill="#1D1D1B"/>
<path d="M140.937 73.4466C140.961 74.8426 138.967 76.1188 136.487 76.1621C134.006 76.2054 131.969 74.9996 131.944 73.6035L130.753 5.35128C130.729 3.95522 132.723 2.67909 135.203 2.63579C137.684 2.59249 139.721 3.79826 139.745 5.19433L140.937 73.4466Z" fill="#1D1D1B"/>
<path d="M175.305 70.0497C175.64 71.4403 173.962 73.0213 171.647 73.6824C169.174 74.191 166.993 73.6084 166.656 72.0627L143.479 5.90102C143.145 4.51037 144.823 2.92941 147.138 2.26835C149.61 1.75969 151.794 2.4974 152.129 3.88805L175.305 70.0497Z" fill="#1D1D1B"/>
<path d="M272.538 194.198C273.183 195.583 271.82 197.469 269.666 198.437C267.357 199.409 265.028 199.294 264.539 197.906L157.143 6.90937C156.499 5.52413 157.862 3.63835 160.016 2.66975C162.325 1.69844 164.499 1.81568 165.143 3.20092L272.538 194.198Z" fill="#1D1D1B"/>
</svg>
