<?xml version="1.0" encoding="UTF-8"?>
<svg id="Layer_1" xmlns="http://www.w3.org/2000/svg" version="1.1" viewBox="0 0 54 43.3">
  <!-- Generator: Adobe Illustrator 30.2.0, SVG Export Plug-In . SVG Version: 2.1.1 Build 105)  -->
  <defs>
    <style>
      .st0 {
        fill: #f2f2f2;
      }
    </style>
  </defs>
  <path class="st0" d="M53.9,21.2h0c-.2-4.3-1.4-4.9-2.9-5,0,0-3.7-12.7-3.7-12.8-1.4-2.9-2.9-3.4-4.9-3.4H11.5c-1.9,0-3.4.5-4.9,3.4,0,0-3.6,12.8-3.7,12.8-1.5.2-2.7.7-2.9,5v10.5c0,2.3-.3,4.3,2.1,4.3v5.1c0,2.4,1.9,2.2,4.2,2.2s4.3,0,4.3-2.2h0v-5.1h32.9v5.1c0,2.3,1.9,2.2,4.3,2.2s4.1.2,4.2-2.2v-5.1c2.3,0,2-2,2-4.3v-10.5h0ZM7,29.4c-2.7,0-4.8-2.2-4.8-4.8s2.2-4.9,4.8-4.9,4.8,2.2,4.8,4.9-2.1,4.8-4.8,4.8ZM7.9,14.9l2.3-9.4c.8-1.8,1.5-1.9,2.7-2h28.1c1.2.2,2,.2,2.7,2l2.3,9.4H7.8h.1ZM47,29.4c-2.7,0-4.8-2.2-4.8-4.8s2.2-4.9,4.8-4.9,4.9,2.2,4.9,4.9-2.2,4.8-4.9,4.8Z"/>
</svg>