<?xml version="1.0" encoding="UTF-8"?>
<svg id="Layer_1" xmlns="http://www.w3.org/2000/svg" version="1.1" viewBox="0 0 173.7 143.7">
  <!-- Generator: Adobe Illustrator 30.1.0, SVG Export Plug-In . SVG Version: 2.1.1 Build 136)  -->
  <defs>
    <style>
      .st0 {
        fill: #f2f2f2;
      }
    </style>
  </defs>
  <g>
    <path class="st0" d="M39.8,100.5c-.2.5-1,.5-1.8.2h0c-.8-.3-1.3-1-1-1.5L73.5,31.5c.2-.5,1-.5,1.8-.2h0c.8.3,1.3,1,1,1.5l-36.6,67.7h0Z"/>
    <path class="st0" d="M73.7,55.8c-.1.5-.9.8-1.7.6h0c-.9-.2-1.4-.7-1.3-1.3l7.8-23.4c.1-.5.9-.8,1.7-.6h0c.9.2,1.5.7,1.4,1.3l-7.8,23.4h0Z"/>
    <path class="st0" d="M86.1,56.1c0,.5-.7.9-1.6.9h0c-.9,0-1.6-.4-1.6-.9v-24c0-.5.7-.9,1.6-.9h0c.9,0,1.6.4,1.6.9v24Z"/>
    <path class="st0" d="M98.2,55.1c.1.5-.5,1-1.3,1.3h0c-.9.2-1.6,0-1.7-.6l-7.8-23.4c-.1-.5.5-1,1.3-1.3h0c.9-.2,1.6.1,1.7.6l7.8,23.4h0Z"/>
    <path class="st0" d="M131.7,99.4c.2.5-.3,1.1-1,1.5h0c-.8.3-1.6.3-1.8-.2l-36.6-67.9c-.2-.5.3-1.1,1-1.5h0c.8-.3,1.6-.3,1.8.2l36.6,67.9h0Z"/>
    <path class="st0" d="M74.2,28.4c-.5,0-.9-1.3-.9-2.7h0c0-1.5.4-2.7.9-2.7h19.9c.5,0,.9,1.3.9,2.7h0c0,1.5-.4,2.7-.9,2.7h-19.9Z"/>
    <path class="st0" d="M111.3,79.3h.1c-.2-4.3-1.4-4.9-2.9-5-.1,0-3.7-12.7-3.7-12.8-1.4-2.9-2.9-3.4-4.9-3.4h-31c-1.9,0-3.4.5-4.9,3.4,0,.1-3.6,12.8-3.7,12.8-1.5.2-2.7.7-2.9,5v10.5c0,2.3-.3,4.3,2.1,4.3v5.1c.1,2.4,1.9,2.2,4.2,2.2s4.3.1,4.3-2.2h0v-5.1h32.9v5.1c0,2.3,1.9,2.2,4.3,2.2s4.1.2,4.2-2.2v-5.1c2.3,0,2-2,2-4.3v-10.5ZM64.4,87.5c-2.7,0-4.8-2.2-4.8-4.8s2.2-4.9,4.8-4.9,4.8,2.2,4.8,4.9-2.1,4.8-4.8,4.8ZM65.3,73l2.3-9.4c.8-1.8,1.5-1.9,2.7-2h28.1c1.2.2,2,.2,2.7,2l2.3,9.4h-38.2ZM104.4,87.5c-2.7,0-4.8-2.2-4.8-4.8s2.2-4.9,4.8-4.9,4.9,2.2,4.9,4.9-2.2,4.8-4.9,4.8Z"/>
  </g>
  <path class="st0" d="M84.3,10.8c33.9,0,61.4,27.5,61.4,61.4s-27.5,61.4-61.4,61.4-61.4-27.5-61.4-61.4S50.4,10.8,84.3,10.8M84.3,2.8C46,2.8,14.9,33.9,14.9,72.2s31.1,69.4,69.4,69.4,69.4-31.1,69.4-69.4S122.6,2.8,84.3,2.8h0Z"/>
</svg>