<?xml version="1.0" encoding="UTF-8"?>
<svg id="Layer_1" xmlns="http://www.w3.org/2000/svg" version="1.1" viewBox="0 0 1015.2 843.1" preserveAspectRatio="none">
  <!-- Generator: Adobe Illustrator 30.1.0, SVG Export Plug-In . SVG Version: 2.1.1 Build 136)  -->
 
  <path class="st0" d="M774.3,216.8c9.5-28.6,36.6-59.1,59-86.7,14.1-17.4,26.3-33.6,31.3-47.5,12.9-36.1,12.9-95.5-18.1-80-18.2,9.1-19.2,43.6-22.8,76.6-1.9,17.6-4.5,34.8-10.8,47.4-18.1,36.1-85.2,103.3-77.4,149.7,7.7,46.5,23.2-12.9,38.7-59.4Z"/>
  <path class="st0" d="M624.5,469.8c9.7-8.1-5.8-25.1-20.6-45-9-12-17.8-25-20.7-37.7-7.7-33.6,26.5-84.3,12.9-116.2-7.7-18.1-54.2-2.6-69.7,62-2.6,10.8-2,22.2.8,33.6,14.2,56.7,84.4,114,97.2,103.2Z"/>
  <path class="st0" d="M136.7,407.8c1.8,0,3.4-.6,5-1.6,19.5-12.8,27.5-98.2,46.6-119.7,20.7-23.2,39-114.1,7.8-111-11,1.1-21,12.3-29.8,29.2-32.5,62.4-47.8,203.2-29.5,203.2Z"/>
  <path class="st0" d="M4.4,471.1c-16.9,11.1,20,6.5,32.9,20,12.9,13.6,10.3,29,18.7,21.3,8.4-7.7-25.2-58.7-51.6-41.3Z"/>
  <path class="st0" d="M893,536.9c-67.1,49.1-74.9,7.8-23.2-69.7,51.6-77.4,81.6-263.8,25.8-291.7-25.8-12.9-62,38.7-103.3,142-41.3,103.3-56.8,80-62,41.3-5.2-38.7-23.2-51.6-31-7.8-7.7,43.9-2.6,25.8-33.6,59.4-.3.3-.6.6-.8.9-29.8,33.2-12,61.8-1.8,143.7,10.3,82.6-46.5,134.2-41.3,74.9,5.2-59.4-43.9-121.3-46.5-59.4-2.4,58.4-48.5,105.4-53.7,110.5-.3.3-.5.5-.5.5,0,0,0,0,0,0,0,0,0,0,0,0,0,0,0,0,0,0,0,0,0,0,0,0,0,0,0,0,0,0,0,0,0,0,0,0,0,0,0,0,0,0,0,0,0,0,0,0,0,0,0,0,0,0,0,0,0,0,0,0,0,0,0,0,0,0,0,0,0,0,0,0,0,0,0,0-.1-.1,0,0,0,0-.1,0,0,0,0,0-.1-.1,0,0,0,0-.1-.1,0,0,0,0-.1-.1,0,0,0,0-.1-.1,0,0-.1,0-.2-.1,0,0,0,0-.2-.1,0,0-.1,0-.2-.1,0,0-.1,0-.2-.1,0,0-.1-.1-.2-.2,0,0-.1,0-.2-.1,0,0-.2-.1-.2-.2,0,0-.1,0-.2-.1,0,0-.2-.1-.3-.2,0,0-.1,0-.2-.1-.2-.1-.3-.2-.5-.3,0,0-.1,0-.2,0-.1,0-.3-.2-.4-.2,0,0-.2,0-.2-.1-.1,0-.2-.1-.4-.2,0,0-.2,0-.3-.1-.1,0-.2-.1-.4-.2,0,0-.2,0-.3-.1-.1,0-.3-.1-.4-.2-.1,0-.2,0-.3-.1-.1,0-.3-.1-.4-.2-.1,0-.2-.1-.3-.2-.1,0-.3-.1-.5-.2-.1,0-.2,0-.4-.1-.2,0-.3-.1-.5-.2-.1,0-.3,0-.4-.1-.2,0-.3-.1-.5-.2-.1,0-.3,0-.4-.1-.2,0-.4-.1-.6-.2-.1,0-.3,0-.4-.1-.2,0-.4-.1-.6-.2-.1,0-.3,0-.4-.1-.2,0-.4-.1-.7-.2-.1,0-.3,0-.4-.1-.2,0-.5-.1-.7-.2-.1,0-.3,0-.4,0-.3,0-.6-.1-.9-.2,0,0-.2,0-.3,0-.8-.2-1.7-.3-2.6-.5,0,0-.2,0-.2,0-.4,0-.8-.1-1.2-.2-.1,0-.3,0-.4,0-.3,0-.7,0-1-.1-.2,0-.3,0-.5,0-.3,0-.7,0-1-.1-.2,0-.4,0-.6,0-.3,0-.7,0-1,0-.2,0-.4,0-.6,0-.3,0-.7,0-1.1,0-.2,0-.4,0-.7,0-.4,0-.7,0-1.1,0-.2,0-.5,0-.7,0-.4,0-.8,0-1.1,0-.2,0-.5,0-.7,0-.4,0-.8,0-1.2,0-.2,0-.5,0-.7,0-.4,0-.8,0-1.3,0-.2,0-.5,0-.7,0-.4,0-.9,0-1.3,0-.2,0-.5,0-.7,0-.5,0-1,0-1.5,0-.2,0-.4,0-.6,0-.6,0-1.1,0-1.7.1-.2,0-.3,0-.5,0-.7,0-1.5.1-2.3.2,0,0,0,0,0,0-1.6.2-3.2.3-4.9.6-.2,0-.3,0-.5,0-.7,0-1.3.2-2,.3-.3,0-.5,0-.8.1-.6,0-1.2.2-1.8.3-.3,0-.6,0-.9.1-.6,0-1.2.2-1.8.3-.3,0-.7.1-1,.2-.6.1-1.2.2-1.8.3-.4,0-.7.1-1.1.2-.6.1-1.2.2-1.8.4-.4,0-.8.2-1.2.2-.6.1-1.2.2-1.8.4-.4,0-.8.2-1.2.3-.6.1-1.2.3-1.8.4-.4,0-.9.2-1.3.3-.6.1-1.2.3-1.9.4-.4.1-.9.2-1.3.3-.6.2-1.3.3-1.9.5-.5.1-.9.2-1.4.4-.7.2-1.3.4-2,.5-.5.1-.9.2-1.4.4-.7.2-1.4.4-2.1.6-.5.1-.9.3-1.4.4-.7.2-1.5.4-2.2.6-.5.1-.9.3-1.4.4-.9.3-1.7.5-2.6.8-.6.2-1.2.4-1.7.5-1,.3-2,.6-3,1-.6.2-1.2.4-1.8.6-.6.2-1.2.4-1.8.6,0,0-.1,0-.2,0-5.5,1.8-11.2,3.9-17.3,6.2-95.5,36.1-219.4-90.4-229.7-167.8-10.3-77.4,64.5-162.6,41.3-193.6-.2-.3-.4-.5-.6-.7,0,0-.1-.1-.2-.2-.1-.2-.3-.3-.4-.5,0,0-.1-.1-.2-.2-.1-.1-.3-.2-.4-.4,0,0-.2-.1-.2-.2-.1-.1-.3-.2-.4-.3,0,0-.2-.1-.2-.2-.1,0-.3-.2-.4-.3,0,0-.1,0-.2-.1-.2,0-.3-.2-.5-.2,0,0,0,0-.1,0-.2,0-.4-.2-.6-.2,0,0-.1,0-.2,0-.1,0-.3,0-.4-.1,0,0-.2,0-.2,0-.1,0-.2,0-.4,0,0,0-.2,0-.3,0-.1,0-.2,0-.4,0,0,0-.2,0-.3,0-.1,0-.2,0-.4,0,0,0-.2,0-.3,0-.1,0-.2,0-.4,0,0,0-.2,0-.2,0-.2,0-.4.1-.5.2,0,0-.2,0-.2.1-.1,0-.3.1-.4.2,0,0-.2.1-.3.2-.1,0-.2.1-.3.2,0,0-.2.1-.3.2-.1,0-.2.2-.3.2,0,0-.2.1-.3.2-.1,0-.2.2-.3.3,0,0-.2.2-.3.2-.1.1-.2.2-.4.3,0,0-.2.2-.3.2-.2.2-.3.3-.5.5,0,0-.1.1-.2.2-.2.2-.4.5-.6.7,0,0-.1.2-.2.2-.2.2-.3.4-.5.6,0,0-.1.2-.2.3-.1.2-.3.4-.4.6,0,0-.1.2-.2.3-.1.2-.3.4-.4.6,0,0-.1.2-.2.3-.2.3-.3.5-.5.8,0,0,0,.1-.1.2-4.8,7.5-9.7,19.7-14.6,34.3,0,0,0,0,0,0-.5,1.6-1.1,3.2-1.6,4.9,0,.1,0,.3-.1.4-.2.8-.5,1.5-.7,2.3,0,0,0,.1,0,.2-.3.8-.5,1.6-.8,2.4,0,.2-.2.5-.2.7-.2.6-.3,1.1-.5,1.7,0,.3-.2.6-.3.8-.2.7-.4,1.4-.7,2.1-.1.4-.2.8-.4,1.2-.1.4-.2.8-.3,1.1-.1.5-.3.9-.4,1.4,0,.3-.2.5-.2.8-.3,1.1-.7,2.2-1,3.3,0,0,0,0,0,0-.2.7-.4,1.3-.6,2,0,0,0,0,0,0-6.6,22-13.1,45.9-19.2,65.8,0,0,0,0,0,.1-.5,1.6-1,3.2-1.5,4.8,0,0,0,.2,0,.3-.2.7-.5,1.4-.7,2.1,0,0,0,.1,0,.2-.2.7-.5,1.5-.7,2.2,0,.1,0,.2-.1.3-.2.6-.4,1.2-.6,1.8,0,.2-.1.3-.2.5-.2.7-.5,1.4-.7,2,0,0,0,.1,0,.2-.2.6-.4,1.2-.6,1.7,0,.2-.1.4-.2.5-.2.6-.4,1.1-.6,1.6,0,0,0,.2,0,.3-.2.6-.4,1.2-.6,1.8,0,.2-.1.4-.2.5-.2.5-.3.9-.5,1.4,0,.2-.1.3-.2.5-.2.6-.4,1.1-.6,1.6,0,.2-.1.3-.2.5-.2.4-.3.8-.5,1.2,0,.2-.1.3-.2.5-.2.5-.4,1-.6,1.5,0,0,0,.2-.1.3-.2.4-.4.8-.5,1.3,0,.2-.1.3-.2.5-.2.4-.3.8-.5,1.1,0,.1,0,.2-.1.3-.2.4-.4.9-.6,1.3,0,.1-.1.3-.2.4-.2.3-.3.7-.5,1,0,.1-.1.2-.2.4-.2.4-.4.8-.6,1.2,0,0,0,.2-.1.2-.2.3-.3.6-.5.9,0,.1-.1.2-.2.3-.2.4-.4.7-.6,1-2.6,4.3-5.5,7.6-8.5,10.2-20.5,17.7-48,1.5-63.8,28.5-18.1,31,105.8,100.7,90.3,136.8-2.8,6.6-7.3,10-12.9,11.3-24.7,5.8-70.5-30.3-85.2-11.3-18.1,23.2,28.4,41.3,131.6,59.4,103.3,18.1,108.4,59.4,142,95.5,32.1,34.6,116.3-1.8,161.9-14,2-.6,4-1,5.9-1.5,43.9-10.3,59.4-2.6,123.9,7.7,64.5,10.3,180.7-69.7,245.2-152.3.2-.2.3-.4.5-.6,64.1-82.5,81.9-179.9,15-131Z"/>
  <path class="st0" d="M988.5,265.8c-25.8,10.3-23.2,129.1-41.3,170.4-18.1,41.3-54.2,46.5-59.4,62-2.5,7.5,14.8,2.3,34.3-6.7,20.9-9.7,44.3-24,48.3-32,7.7-15.5,5.2-41.3,23.2-85.2,6.9-16.8,14.4-39.2,18.5-59.6,6.6-32.8,4.3-60-23.6-48.9Z"/>
</svg>