<?xml version="1.0" encoding="UTF-8"?>
<svg id="Layer_1" xmlns="http://www.w3.org/2000/svg" version="1.1" viewBox="0 0 738.5 1069" preserveAspectRatio="none">
  <!-- Generator: Adobe Illustrator 30.1.0, SVG Export Plug-In . SVG Version: 2.1.1 Build 136)  -->
  <path d="M544.5,802.6c-13.6-18.2-42.6-13.2-54.6,2.8-9,11,1,24,11,32,10,7,24,12,35,5,12-7,16-24,10.1-36.8-.5-1-.9-2.1-1.5-3Z"/>
  <path d="M242.2,993.6c-.4-15.3-13.2-23.9-25.3-20.2-11.7,3.8-19.2,15.6-17.7,30.5,2,16,18,22.4,28.6,16.8,9-4.6,16.4-14.2,14.4-26.9h0v-.2h0Z"/>
  <path d="M237.6,937.5c-3.7-13.1-18.7-21.1-31.7-16.1-10,5-14,18-10,28s14,18,25,17c14-1,20-17,16.7-28.8q-1.5-5.3,0,0h0Z"/>
  <path d="M179.8,93c-.9,5.4,2.1,9.4,4.1,12.4,4,5,11,3,13-1,17-27,32-55,31-87-1-12-12-22-23-21-28,4-16,45-20,65.5-.7,11.3-1.9,21.7-5.3,29.1v2h.2Z"/>
  <path d="M364.3,924.4c-13.5,5.1-22.4,20-22.4,34,0,35-1,72,20,103,4,6,15,4,19-1,10-12,9-26,8-40-1.5-12-3.5-23.7-4.4-35.4s-.8-23,2-34.3c1.5-11.8-8.7-23.7-22.1-26.4h-.1Z"/>
  <path d="M237,457.8c1.9-11.7,5.2-23.4,7.2-34.9s2.7-23-.3-34.5c-1,11-2.2,22-3.6,33s-2.8,22.2-4.1,33.4c-.3,2,0,3.2.8,2.9h0Z"/>
  <path d="M245.9,366.7c1.3-9.3,1.4-18.6.7-27.8s-2.3-18.3-4.5-27.3c-13.1-40.3-28.1-78.3-34.1-120.3-6,37,16,71,25.8,104.8,3.7,11.2,6.8,22.4,8.7,33.8,2,11.4,2.8,23,1.9,34.9,0,1.4.6,2.2,1.4,1.8h.1Z"/>
  <path d="M396.6,1005.8c-4.3,7.2-2.2,13.9,2.2,20.5,4.7-5.8-1.9-12.5.3-18,0-1.4-1.2-2.4-2.5-2.5h0Z"/>
  <path d="M415.4,752.1c-12.5,9.3-18.5,27.3-17.5,42.3,4,52,10,102,0,156-3,11-2,21-1,32,1-9,1-18,4-27,17-55,11-109,9-165-1-11,2-24,10.6-32.3.4-1.3-1.9-4-5-6h-.1Z"/>
  <path d="M639.1,114.7c10.8-19.3,11.8-42.3,8.8-63.3-4,20-3,41-9.9,60.9-.4,1.2,0,2.2,1.1,2.4h0Z"/>
  <path d="M632,133.1c4.2-2.7,5.7-7.7,5.5-13.1-5.2,1.5-4.2,7-6.4,10.7-.5,1.1,0,2.2.8,2.4h.1Z"/>
  <path d="M267.9,940c0,21.4,1,42.4,5,62.4,3-20-2-40-2.8-59.9-.2-1.4-1.2-2.4-2.1-2.5h-.1Z"/>
  <path d="M272.5,1006.3c-2.5,2.8-1.8,7.8-1.8,12.6,4.9,1.3,3.6-6.6,3.6-10s-.8-2.6-1.9-2.6h0Z"/>
  <path d="M462.9,994.1c-4.2,3.6-5.9,8.8-1,9.7s1.7-5.1,3.6-7.6c.2-1.2-1.1-2-2.7-2.1h.1Z"/>
  <path d="M480.7,948.1c-13.8,10.3-17.8,27.3-17.8,43.3,8-13,9-29,20.1-41.4.5-.8-.6-1.6-2.3-1.9h0Z"/>
  <path d="M540.6,966.3c-6.4,7.8-10,15.8-7.6,24.7,8-7.8,5.6-15.6,9.5-23.2.4-.9-.6-1.5-2-1.4h0Z"/>
  <path d="M573.4,849.2c.5,39.2-15.5,75.2-29.5,110.2,20-32,33-71,31.3-109.3,0-1.1-.8-1.5-1.8-1h0Z"/>
  <path d="M577.3,721.9c-3.5,11.9-3.3,28.8-1.4,40.7,3.1-13.7,1.6-26,2.6-37.6,0-2.3-.4-3.6-1.2-3.1h0Z"/>
  <path d="M559.9,562.2c22,44.2,22,95.2,18,143.2,9-46,10-98-14.8-140.1-.9-1.8-2.3-3.1-3.2-3.1h0Z"/>
  <path d="M479.6,308.8c6.3-7,10.9-14.7,8.2-25.1-6.1,6.6-7.4,14.8-9.8,22.3-.5,1.3.2,2.5,1.6,2.8h0Z"/>
  <path d="M490,273.8c4.9-53.4,5.9-109.4-14.1-160.4,6,52,17,104,12,157.1-.3,1.7.7,3.1,2.1,3.3h0Z"/>
  <path d="M61.4,818.6c-2.5,21.8-.5,46.8,8.5,66.8,2-4,2-8,1-12-6-18-6-35-7-52.6,0-1.2-1.2-2.2-2.5-2.2Z"/>
  <path d="M671.9,884.7c-11.9,4-21.8,16.5-22.4,27.4s9,17.6,21.6,15.3,22.9-13.6,23-26.1-9.9-20.2-22.1-16.7h0Z"/>
  <path d="M418.6,209c14.3,3.4,30.3-2.6,30.3-19.6,1-14-3-28-14-36-15-11-35-11-49,1-10,10-18,22-16,36,1,9,12,9,18.6,12.6,9.1,2.9,19.9,5.3,30.1,6Z"/>
  <path d="M411.3,274.7c11.6,5.7,30.6,6.7,37.6-6.3,10-18-7-36-22-42-18-8-42,1-47.7,20.6-1.6,12.3,12.9,23.2,32.1,27.6h0Z"/>
  <path d="M548.6,262.8c1.3,5.6-1.7,12.6,3.3,16.6,4-59-7-117-5-176,1-7,2-14,4-21-15,55,4,113,.2,169.7-1.5,3-2.3,6.8-2.5,10.7Z"/>
  <path d="M720.1,110s0,.3,0,0Z"/>
  <path d="M694.9,180.8c0,1.6,1,3.6,1,4.6-1,6-9,9-11,14-1,4,1,8,0,12,0,9.5-2.3,21.5-1.9,32.4.4,10.9,3.4,20.6,13.9,25.6-3-4-8-9-7-14,0-11-4-18-5-28-1-3,5-5,4-8-2-13,5-24,9.6-35.1,2.2-4-3.9-8.8,0-13.8,9.8-8.2,10.3-18.1,13.6-28.1,4.2-11.1,13.3-18.3,12.3-31.3-.2-6,9.3-8.3,11-15.3-11.7,5.3-15.7,16.5-15.4,28.4-.2,8-13,11.5-12.5,20.3-.2,6.9.4,14.8-5.8,18.8-6.5,5-9.6,12.8-6.9,17.5h.1Z"/>
  <path d="M47.6,970.4c1.3,5,5.3,7,9.3,10,1,2,2,4,2,6-4,10-2,22,9,27-1-6-9-10-8-14,5-15-5-21-9-33-1-2,2-5,2-8-1-9-15-12-13-20,3-12-8-18-11-26-3-6,4-12-1-17-9-7-10-15-8-26-6-10-10-18-3-29-12,6-4,20-2,29,0,12,8,20,8,29,1,14,12,21,14,33,1,3-2,7-1,10,2,6,9,8,12,13,2,3,1,5,.3,7.6-1.6,2.3-1.7,5.2-.6,8.3h0Z"/>
  <path d="M469,659.3c-6.1-8.9,3.9-18.9-2.1-27.9-3,31-10,62-16.8,92-2.4,10.2-4.8,20.5-7,30.7-4.4,20.6-7.9,41.2-9.3,62.2,0,10,3,22,15,25-5-3-8-8-7-12,4-10,4-18,3-28-1.5-19.5,4-38.5,9.6-57.8s5.7-19.3,7.7-29.1,3.1-19.7,2.5-29.8c0,0,2,0,4,1,9.4-4.7,9.5-17,.4-26.3h0Z"/>
  <path d="M67.7,191.1c5.2,7.3-4.3,11.8-5.3,17.7-1.9,5.9-.7,14,6.2,18.3.8-4-3.1-7.1-4.2-11.2-2-10.1,12.2-14.3,6.6-23.6-4.7-9.3,1-15,5.8-20.7,3.8-5.8-1.8-11.2-1.7-17.3-.9-7.1,9.6-10.5,7.9-16.8-4.6-14.6,7.2-22.1,4.5-32.5-3.8-13.5,7.2-21.3,3.3-30.6-3.9-11.1-1.9-18.1,3.1-27.1-6-1-6,8-9,12-4,6,5,11.1,3.9,17.1-1.9,6.9-8.9,13.9-4.9,20.9,5,10-3,16-6,24-1,3,2,7,1,10-1,13-12,22-4,35,1,3-2,6-4.1,7.6-5.5,4.6-6.9,12.2-3.1,17.2h0Z"/>
  <path d="M570.8,295.1c1.1,4.3,6.1,5.3,10.1,5.3s6-4,7-6c8-19,12-39,9-59-2-15-5-43-23-38-10,2-7,16-7,26,1,18,6,36,2.7,54.1-1.1,7.5-.6,13.6,1.1,17.6h.1Z"/>
  <path d="M151.4,954.9c-3.5-10.5-14.5-17.5-24.5-17.5-6-1-15,1-14,7,7,39-3,83,23,115,39-18,17-71,15.5-104.2v-.4h0Z"/>
  <path d="M648.7,441.4c-1.3-22-.6-43.8.7-65.6q1.3-21.8,2-32.7c1.4-26.7,4.4-52.7-.6-79.7-10-53,10-100,28.6-146.6,3.2-9,6.2-18.1,8.7-27.2,5.1-18.3,8.3-37.1,7.6-57.1,0-9-5-17-13-21-12-6-27,5.8-26,18.7,4,55.3-20,105.3-35,158.3-3,14-5,28-4,42,3,57-8,110-18.1,164.7-.9,10.9-1.1,21.8-.7,32.6,1,27.1,6,53.9,14.1,80.4,2.7,8.8,5.7,17.6,9.1,26.4,8.6,29.8,39.6,61.8,15.6,92.8-31-24-51-61-64.4-97.1-4.2-11.7-7.5-23.3-10-35.1-2.4-11.7-4-23.5-4.9-35.5-.9-11.9-1-24-.3-36,2.6-37.3,9.6-74.3,24.6-108.3-44-1-42,63-53,94-5,14-24,22-34,9-6-8-4-19-1-28,12-42,49-74,48-119-1-10-9-29-17-21-29.3,32-45.8,72.4-58,114.3-3,10.5-5.8,21-8.5,31.6-13.6,39.1-3.6,85.1-23.6,118.1-12,18-47-11-54-36-11-41-7-87,20-120,9-9.5,19.2-23,23.5-36.1,4.3-13.1,2.5-25.9-12.5-33.9-40-21-57,33-85,54-6,4-13,3-20,3-8-1-13-10-14-19-1.5-14,4.2-30,6.4-45.2,2.1-15.2.6-29.3-15.4-38.8-7-4-16.8-8-25.9-9-9.1-1-17.6,1-22.1,9-11,21,5,43,14,64,2,6,3,12,3,18,.2,11.1.3,22.2,0,33.4-.2,13.1-.7,26.1-1.6,39.1-.9,13.1-2.2,26.1-3.7,39.2-14.7,66.3-7.7,145.3-51.7,198.3-3,4-11-10-9-19,13-67,32-128,34.6-194.4.2-12.2,0-24.1-.8-35.9-3.6-59-16.4-117.7-35.9-174.7-1-5,2-9,.8-14,.5-9.2,1.3-18.5.3-28-1-7-9-17-14-12-15,13.5-17.5,32.2-16.6,52.1.9,19.9,1.8,20.2,3.4,30.1.3,11.7,9.3,25.4,1.3,35.5-7,10.1-21,1.2-27-6.8-12-17-13-38-9.2-57.5,1.1-9,2.4-18,3.2-27.1.8-9.1,1-18.2,0-27.4-1-11-17-14-23-7-6.5,8.7-11.4,17.8-15.1,27.2-3.7,9.4-6.2,19.2-7.8,29.2-3.5,26.3,2.1,50.6,12,73.8-6.8,3.9-11.6,10-13.9,17.1-6.7,1.9-12.7,5.9-16.4,12.1-10.2,2.5-19.1,9.8-21.8,20.8-1.7,7.1-3.7,14.1-5.9,21.1-.9,2.6-1.9,5.3-2.9,7.9-3.8,8.4-8.1,16.5-13,24.2-1.3,2.1-2.7,4.1-4,6.1-.1.1-.3.3-.4.4-5,4.9-10.2,9.7-15.4,14.4v275.9c9.8,13.4,20,26.6,27.2,41.7,1.7,4.5,3,9,4,13.7.2,2.6.2,5.3,0,7.9-.1.5-.2,1-.3,1.5-3.5,15.3,4.7,33.2,21,36.9,1.3.3,2.6.5,4,.6,1.1,5.5,2.4,11,4.1,16.5-1.1-5.5-1.9-10.9-2.5-16.4,5.1.2,10.1-.7,14.7-2.6,2.8,30.4,9.3,60.3,12.2,90.6,2.3,13.2,6.1,26,12.8,37.7.5.6.9,1.1,1.5,1.7h.2c9.1,10,30.1,16,35.1,2,4-14,2.5-28,.2-42.1-2.2-31.9-19.2-63.9-9.2-96.9,3-11,18-12,25-8,29,19,21,59,26.8,88.3,1.2,10.7,2.8,21.4,5.3,31.9,2.7,11.2,7.4,21.2,17.9,26.7,11,6,25.9,1,27.9-12,1-15-10.3-29-4.5-43.9,1.6-8.9,13.5-11.8,22.4-5.9,10.3,8.4,15.3,19.6,18.2,31.6,2.3,12,3.1,24.8,6.2,36.5,1.6,10.1,3,20.3,4.7,30.6s3.6,20.7,6.1,31.2c2,10,21,20,24,8,4-11.5,5.4-23.1,5.2-34.7.8-7.3-1.2-13.3-1.2-20.3-.8-9.2-3.9-19.3-7.5-29.6-3.7-10.3-7.9-20.9-11.5-31.1-7-17.3-15-50.3,6-51.3,14.5,0,23.2,10,29.1,23.2,5.9,13.2,8.8,29.6,11.8,42.4,3.1,18.4,22.1,33.4,40.1,24.4,18-11,18-34,18-52-1-24.5-9-49-14.6-73.4-5.6-24.4-5-24.3-5.6-36.3,12.2-60.3,11.2-156.3,70.2-175.3,49-15,62,57,50.9,100.5-.9,9.6-1.8,19.2-1.9,28.6-.5,28.1,5,53.9,31,69.9,40.7-38.7,36.9-96.4,22.1-151.1-3.7-13.7-8.1-27.1-12.6-40.1-5.6-18.8-18.6-37.8-17.6-58.8,1-6,6-13,13-9,7.3,5.2,13.9,10.9,19.7,17.2,29.1,31.3,40.1,75,39.3,115.8,0,71-37,159,10,216,4,5,15-23,15-37,2-54-35-139,23-171,4-2,6,7,6,12,0,28-15,53-11,82,1,7,6,16,15,14,6-2,13-5,14-11,10-52,27-98,27.8-149.1-.8-10-2.9-19.5-5.8-28.9-13.1-43-31.1-85-34.1-131ZM158.6,413c.2-.3.4-.6.7-.9,0,.5.1.9.2,1.4-.3-.2-.6-.3-.8-.5ZM317.8,645.3c-5.5,15.5-9,37.2-14.2,55.1s-12.2,31.9-24.8,31.9c-54-9-19-76-17.5-111.8,1.2-11.8,1.7-19.9,1.7-19.9h0c-1-10.2,5-20.8,13.4-27.2,8.4-6.3,19.2-8.1,28.3-1.9,11.1,8.8,16.3,21.3,17.8,34.6s-.8,27.2-4.8,39.2Z"/>
  <path d="M738.5,392.6c-12.1-15.7-24.1-31.3-36.2-47-5-6.5-9.7-11.5-17.9-13.8-.5-.1-1-.3-1.6-.4-.2-2.7-.4-5.4-.5-8.1-.4-6.4-2.6-12.7-6.3-17.9,0-.4,0-.7,0-1.1-.5-9.5-2.5-18.5-5.1-27.4-2.6-8.9-5.9-17.8-8.9-27.1,3,16.3,6.1,31.4,7.1,47.5,0,.4,0,.7,0,1.1-4.7-3.4-10.4-5.4-16.8-5.1-15.5.7-31,13.2-30,30,1.4,23.9,4.3,47.7,8.8,71.3-.3,3.3,0,6.7.8,10.2.4,1.9.9,3.8,1.4,5.7,6.2,24.9,13.6,49.6,22.3,73.8-.5.3-.9.5-1.4.8-10.8,7-18,20.9-13.8,33.9,9.3,28.2,18.5,56.3,27.8,84.5,0,.9,0,1.8,0,2.8-5.3,22.4-11.8,44.5-17.3,66.8-4.9,19.8-8.7,39.8-11,60.1-2,17.8-1.7,35.2.3,52.9,0,.2,0,.3,0,.5,0,0,0,0,0,0,.3,2.7.6,5.3,1,8,.4,3.3,2.4,6.9,5,10.2-2.1,20.3,6.4,42.7,9.8,63.8,2,11,21,4,28-4,13.8-16.7,11.2-36.7,5.8-55.5,6.2-5.4,9.9-13.4,10.3-22.4,0-1.9.2-3.8.4-5.6,4.1-22.9,14.3-44.1,21.1-66.3,4.4-2.4,8.1-6,10.7-10.6,2.1-3.7,4.1-7.3,6.2-10.9v-300.4Z"/>
</svg>