<?xml version="1.0" encoding="UTF-8"?>
<svg id="Layer_1" xmlns="http://www.w3.org/2000/svg" version="1.1" viewBox="0 0 115.5 41.1">
  <!-- Generator: Adobe Illustrator 30.2.0, SVG Export Plug-In . SVG Version: 2.1.1 Build 105)  -->
  <defs>
    <style>
      .st0 {
        fill: #f0f9fc;
      }
    </style>
  </defs>
  <path class="st0" d="M102.5,29.6c-1.3,0-2.4-.8-2.9-2.1-.5-1.6.4-3.3,1.9-3.8,3.3-1,6.6-2.3,9.7-3.6,1.5-.7,3.3,0,3.9,1.6.7,1.5,0,3.3-1.6,3.9-3.3,1.4-6.8,2.8-10.3,3.8-.3,0-.6.1-.9.1Z"/>
  <path class="st0" d="M85.5,30.5c-.2-1.7-1.7-2.8-3.3-2.7-3.8.4-7.8.7-11.7.7-21.3,0-42.4-6.6-60-18.6l22.9-4c1.6-.3,2.7-1.8,2.4-3.5-.3-1.6-1.8-2.7-3.5-2.4L2.5,5.3c-.8.1-1.5.6-1.9,1.2C0,7.2,0,8,0,8.8l5.3,29.8c.3,1.5,1.5,2.5,2.9,2.5s.4,0,.5,0c1.6-.3,2.7-1.8,2.4-3.5l-4-22.5c18.6,12.6,40.8,19.5,63.3,19.5s8.3-.2,12.3-.7c1.7-.2,2.8-1.7,2.7-3.3Z"/>
</svg>