<?xml version="1.0" encoding="UTF-8"?>
<svg id="Layer_1" xmlns="http://www.w3.org/2000/svg" version="1.1" viewBox="0 0 1358.9 1294.4" preserveAspectRatio="none">
  <!-- Generator: Adobe Illustrator 30.1.0, SVG Export Plug-In . SVG Version: 2.1.1 Build 136)  -->
  <defs>
    <style>
      .st0 {
        fill: #092126;
      }
    </style>
  </defs>
  <path class="st0" d="M1358.9,78.1c0-31.7-36.2-61.8-65-36.9-27.5,23.9-3.6,68.3,2.5,96.7,7.2,33,10.1,67.1,9.7,100.8-.3,29.9,1.5,74-10.9,101.8-12.9,28.9,29.1,46.1,23.9,8.7-34.5-281.6,40.3-10.8,39.7-271Z"/>
  <path class="st0" d="M275.9,192.6c14.2.2,15.9-17.1,12.5-27.6-2.6-8.1-7.1-8.9-11.3-6-9.9,6.7-18.7,33.3-1.2,33.6Z"/>
  <path class="st0" d="M465.8,156.1c1.1,3.6,3.7,11.5,8.2,6.9s2-7.1.4-9.5c-1.4-2-7-5.3-8.7-2.1,0,0,0,0,0,.1-.7,1.4-.3,3.1.1,4.6Z"/>
  <path class="st0" d="M837,114.3c-.1,5.5,1.1,10.8,2.5,16.1,2.1,8.3,6.8,18.6,1.9,26.7-3,4.9-8.4,7.8-11.2,13.2-2.4,4.7-3.3,10.4-1.3,15.2,2.6,6.3,11.7,13.2,18.7,13.6,7.8.4,12.2-6.7,13.7-13.5,3-13.2.2-28-6.9-39.3-2.7-4.3-5.5-7.1-6.1-12.3s.1-9,.5-13.5c.4-4.9,2.6-18-5.1-18.9-1.2-.1-2.2.1-3,.7-3.1,2.2-3.5,8.8-3.6,12.1Z"/>
  <path class="st0" d="M947.9,103.1c-2,30-4,60.1-6,90.1-.9,13.1-2.7,26.1-3.9,39s1.8,22.4,10.3,27c12.8,6.8,21.3-14.8,21.6-24.5.2-10.2-4.4-22.2-6.3-32.2-1.8-10.1-3.5-20.3-5-30.5-1.5-10.4-4-21.5-4-31.9,0-8.6,3.9-17,5.5-25.5,1-5.2,6.2-27.2-6.7-22.8-.9.3-1.7.8-2.3,1.5-2.3,2.3-2.9,6.4-3.2,9.8Z"/>
  <path class="st0" d="M994.2,105.2c-.3,1.3.1,2.6.5,3.9,2.2,6.9,3,14.3,2.6,21.5-.4,6.1-2.3,13.2.5,19,.7,1.5,2.3,2.6,3.9,2.3,1.7-.3,2.7-2.1,2.8-3.8,0-1.7-.5-3.3-1.1-4.9-3.4-9.8-4.5-20.4-2.5-30.6.3-1.7.8-3.5.6-5.2-.2-2.3-1.7-5.1-4.4-4.8-1.2.2-2.2,1-2.7,2s-.2.4-.2.6Z"/>
  <path class="st0" d="M1055.3,143.3c-4.8,4.7-1.7,19.5-1.6,25.5.7,40.9,4.9,82.5-1.7,123.1-.8,4.7-1.6,9.7.5,14,2.7,5.6,10.4,6,14.9,2.3,8.8-7.2.7-17-2-24.6-3.3-9.2-1.7-19.8,1.1-28.9,3.9-12.8,10-25.6,8.5-38.9-1.1-10-6.3-19-10.1-28.3-2.4-6-4.3-12.6-3.9-19.2.3-5.1,3.1-9.5,3.1-14.5,0-4.1-1.5-14.1-6.4-12.3-.8.3-1.6.8-2.5,1.7Z"/>
  <path class="st0" d="M401.9,127.6c-.4-1.7-1.1-3.4-2.4-4.6-3-2.9-7.6-1-6.3,3.3,1.3,4.3,4.7,7.4,5.4,12,0,.6.2,1.1.4,1.6.6,1,2.1,1,2.5-.1s0,0,0,0c1.5-3.6,1-9.3.3-12.2Z"/>
  <path class="st0" d="M381,166.9c-1.5,5.6-3.7,11.1-3.8,17,0,2.2.5,4.5,2.7,5.4,2.2,1,5.1.5,5.9-2.1.3-1.1.3-2.3.2-3.4-.7-10.6-2-21.2-2-31.9,0-1.8-.4-3.8-.6-5.6-.1-.7-.6-3.1-1.4-1.3s.2,2.8.3,3.6.1,2.4.2,3.5,0,2,0,3c0,3.9-.4,7.8-1.4,11.6Z"/>
  <path class="st0" d="M768.7,307.8c23.3-3.6,26.4,21.3,26.6,39.1,0,26.7.3,53.3,1,80,.6,25.4,13.2,10.8,16.4-5.3,2.7-13.6.2-28.5-1.1-41.7-2.4-23.7-3.7-47.6-1.9-71.3,1.3-16.3,7.1-32.8,6.5-48.8-.6-16.1-5.1-32.3-12.5-46.6-16.9-32.4-77-85-114.2-52.8-9.4,8.1-15,19.8-18.8,31.6-7.8,23.9-9.7,49.8-5.5,74.6,4.2,25,16.2,40.2,29.9,60.7,7.3,10.9,8.8,19.2,9.8,32.2,1.9,25.9-1.8,51.9-3.1,77.7-1.6,31.5-9.7,62.8-12.8,94.4-.7,7.1-1.2,14.3.6,21.2,1.8,6.9,6.6,13.4,13.4,15.4,10,3,20.6-4.9,24.4-14.6,3.8-9.7,2.7-20.5,1.5-30.8-3.3-28.3-6.6-56.5-10-84.8-2.8-23.8-5.6-48.2-.6-71.6,1.7-8.2,4.6-16.3,8.5-23.7,7.8-14.8,24.8-32.2,42.1-34.8Z"/>
  <path class="st0" d="M348.9,234.7c1.2-11.2,2.6-21.1,0-32.1-1.3-5.9-5.4-16.7-9.9-6.1-3.5,8.2-.7,18.2-1.9,26.8-1.6,11.8-2.8,23.6-3.4,35.5-.6,11.9-.8,23.8-.3,35.7,0,2.8,1.4,20,6.6,17.5,3.1-1.5,2.9-20.3,3.3-23.9,1-10,2.1-19.9,3.1-29.9s1.6-15.7,2.5-23.5Z"/>
  <path class="st0" d="M913.6,297.1c1.9-19.8-21.7-31.2-36.8-18.7-4.5,3.8-7.1,9.8-6.6,15.7.5,5.5,3.4,10.6,7.4,14.3,6.5,6.1,14.5,11.3,23.3,6.9,3.3-1.6,6.1-4.1,8.3-7.1s4-7.2,4.4-11.3Z"/>
  <path class="st0" d="M510.3,220.2c1.2,15.5-.3,31-3.2,46.3s-8.2,27-4.5,41c1.7,6.3,6.7,20.3,13.5,10.1,2.4-3.6,2.2-8.3,1.9-12.7-1.2-18.4-2.5-36.9-3.7-55.3-.7-10.1-1.8-20.1-1.8-30.2,0-3.4,5.3-18.7.1-19.6-5.2-.9-3.2,10.5-3,12.9.3,3.5.7,6.6.8,7.4Z"/>
  <path class="st0" d="M238.4,209.8c-14.3-23.8-53.8-27.1-71.3-4.6-12.3,15.8-9.3,33.2.7,49.2,6.5,10.5,23.2,36.4,35.1,41,22.6,8.9,35.6-17.8,39.3-44.5,2.3-16.6,1-33.1-3.8-41.1Z"/>
  <path class="st0" d="M446.8,308.7c-.6,2.7-1.3,5.6-.7,8.3,1.8,7.9,11.4,5.4,12.3-1.6.4-3.3-.7-6.5-1.5-9.7-2.7-10.7-2.6-22.2.4-32.9.7-2.6,1.7-5.3,1.5-8s-1.6-5.6-4.2-6.4c-11.5-3.6-7.4,15.2-6.8,19.6.6,4.6.9,9.2.9,13.7,0,5.7-.7,11.4-1.9,17Z"/>
  <path class="st0" d="M579.7,306.1c.1,3,1.6,5.8,2.6,8.6,3.1,8.7,2.2,18.2.5,27.3-1.7,9.1-4,18.1-3.4,27.3.5,7,6.2,25.9,15.8,21.7s8-17,8.9-22.2c2.4-13.4,1.8-27.3-1.8-40.4-1.9-7.1-5.9-22-12-26.7-.8-.6-1.6-1-2.4-1.4-4.1-1.6-8.3.1-8.1,5.8Z"/>
  <path class="st0" d="M977.4,356.7c1-8.3,12.7-32.6,2.7-37.9,0-1-5.8,1.9-6.3,2.3-1.7,1.6-2.3,3.8-2.9,6-1.4,5.9-.3,12.5.4,18.4,1.9,17.6-2.2,34.4-2.2,51.9-.6,7.3-3.9,27.9,3.9,32.8,7.1,4.5,10.6-3.8,10.9-9.5-.2-21.7-9.8-41.8-6.5-64.1Z"/>
  <path class="st0" d="M257.1,561.1c3.8,10.7,8.8,21.9,6,32.8-1.7,6.7-6.2,12.4-7.9,19-4.2,15.8,14.9,23.2,18.7,5.8,1.3-6.1-.5-12.4-2.5-18.3s-4.4-11.9-4-18.1c.6-11.7,10.3-21.1,12.3-32.6,2.4-13.9-6.3-26.5-11.1-38.9-5.5-14.2-4.5-30.9-5.4-45.9-2.3-35.5-2.8-71.8,6.3-106.5,2.1-8.2,3.4-30.6-10-30.1-16.9,7.1-10.5,26.5-7.3,40.2,6.6,28.5,2.1,57.9,3.2,86.8.6,14.2,3.4,27.8,3.7,42,.3,13.9-3.7,28.1-4.5,41.8s0,14.8,2.5,21.9Z"/>
  <path class="st0" d="M1140.5,417.8c3.7,8,2.6,17.4.6,26-3,12.4-8.6,24.6-2.1,36.9,4.4,8.4,11.1,12.3,13.2.6,1.7-10-2.7-26.8-5.6-36.4-5.9-19.9,6.9-37.3,18-52.5,5.9-8,11.6-16.7,13.1-26.6,4.5-30.9-34.7-39.4-49.5-15.2-6.1,10-8.6,22-7.2,33.6,1.5,12.3,9.8,18.5,15.9,27.4,1.3,1.9,2.5,4,3.6,6.2Z"/>
  <path class="st0" d="M1012.4,378.6c9.7-4.3,0-44.9-7.7-29.4-4.6,8.5-7.5,34.4,7.7,29.4Z"/>
  <path class="st0" d="M402.7,450.4c9.1,4.8,12.1,19.3,12.2,28.5,0,10.6-3.2,20.4-3.9,30.9-.6,9.6,0,20.9,2.8,30.1.3,1.1.9,2.1,1.7,2.8,2.5,2.2,5.4.7,6.7-1.5.9-1.5,1.3-3.3,1.5-5.1,4.1-28.2-10.9-58.1,5.8-84.2,8.1-12.7,15.9-26.1,16.4-41.5.4-15.2-5.2-30.6-14.7-42.4-9-11.3-23.9-17.6-38-13-14,4.5-25.4,19.1-23.4,34,2.9,21.8,14.2,41.2,14.2,63.7,0,12.7-5.4,30.4,2.6,41.8,1.3,1.9,4.2,1.6,5-.5,4-9.8-5.4-28.3-2.7-37.7,1.5-5.4,6.6-8.2,11.8-6.8.7.2,1.5.5,2.2.9Z"/>
  <path class="st0" d="M502.4,383.8c-15.1,17.5,0,30.3,14.8,12.6,15.1-17.5,0-30.3-14.8-12.6Z"/>
  <path class="st0" d="M921.8,511.1c-.6-10.3-2.7-21.2-.9-31.4,2.1-11.7,5.9-23.2,7.8-35,1.9-11.7,5.9-26.6,1.5-38.2-2-5.3-7.2-9.9-12.9-9.2-4.8.5-8.7,4.7-10.3,9.3s-1.4,9.6-1.2,14.5c2.7,69.9,5.6,139.6,5.6,209.4,0,24.9-4.5,50.1-7.1,74.8-.5,4.8-1,9.9.9,14.4,6.6,15.8,20.4,2.2,22.2-8.3,3.3-20.3-1.5-40.9-4.4-61.2-5-34.6,0-68.6-.1-103.4,0-9.5-.3-19-.7-28.5s-.2-4.8-.3-7.2Z"/>
  <path class="st0" d="M321.4,439.6c-.3-5.2.1-13.9-1.4-20.2s-3.4-1.4-3.2.6.3,1.9.2,2.8c-.1,4-.6,7.9-1.1,11.9-1,7.5-2.4,15-3,22.6-.6,7.2-.8,14.8,1.5,21.8.7,2.1,2.2,7.4,5.4,6.6,3.3-.8,2.3-9.4,2.2-11.9,0-1.1,0-2.1,0-3.2-.3-10.3,0-20.6-.5-30.9Z"/>
  <path class="st0" d="M1064.7,535.2c9.2-7.4,11.4-20.5,5-30.4-11.9-18.3-28.3-37.1-18.4-60.1,5.1-11.1-12-13.2-10.9-2.9,2.1,10.7-1.5,21.2-6.4,31.1-24,48.7-10.1,94.8,30.7,62.2Z"/>
  <path class="st0" d="M582.1,1292.9c1.3-1.6,1.6-3.7,1.8-5.8,2.2-24.1,4.4-47.7,4.2-71.8-.1-25.4-1.4-50.9-1.5-76.3-.1-30.5-.5-61,0-91.5.4-27.5-1.7-58.7,4.1-85.7,17-79.3-14.8-151.9-15.6-229.6-8.7-71.9,70.1-125.4,40.4-198-72.2-154.6-206.3-2.4-125.2,109.7,23.8,32.9,14.8,96.3,10.9,134.1-1.8,17.6-6.6,35.2-7.7,52.7-1.2,18,1.6,36.5,1.4,54.6-.5,31.7-1.7,63.3-3.7,94.9-1,15-3.9,30.7-3.5,45.7s2.3,20.9-.1,32.5c-2,9.6-4.5,19.6-2,29.2,2.5,9.5,11.9,18.1,21.4,15.8,12.4-3,14.6-19.5,14.1-32.2-3.8-111.4-7.5-222.9-11.3-334.3-.4-10.9-.7-22.2,3.7-32.1,4.3-10,14.8-18.2,25.5-16.3,8.2,1.4,14.5,8.4,17.6,16.1s3.4,16.2,3.7,24.5c3.2,89.5,5.6,179.1,7.3,268.6.8,45.3,1.4,90.6,1.9,135.9.3,30.3-4,60.4-3.3,90.7.3,12.1-.6,24.2.4,36.3.5,6.6,1.4,13.4,3.6,19.7,1,2.9,5.1,14.9,9.7,14.1s1.5-.6,2.2-1.5Z"/>
  <path class="st0" d="M1279.7,470.4c-7.7-13.7-4.3-35-3.9-50,.3-9.7.8-19.5.5-29.2,0-2.8.4-6.9-.7-9.5-1.5-3.5-4.4-2.3-5.5.9-.9,2.6,1.1,4.7,1.5,7.2,1.4,8.9-1,19.7-1.5,28.7-1.3,20.2-2.6,40.4-3.8,60.6-.4,7,1.4,23.1,11.5,12.8s5.3-15.5,2-21.5Z"/>
  <path class="st0" d="M466.5,468.1c-.9,9.6,9.5,10.5,10.3.9.9-9.6-9.5-10.5-10.3-.9Z"/>
  <path class="st0" d="M122.8,565.3c-3.6-13.7-3.7-28.2-.3-41.9,1.5-6.3,3.8-12.5,3.5-18.9s-6.6-19.6-12-12.6c-3.9,5.1-1.4,17.6-.5,23.3,2.5,15.8,7.5,31.5.6,47-2,4.5-3.1,11.1.5,15.3s8.4,2.7,9.4-2.8c.6-2.9-.3-5.8-1-8.7,0-.2-.1-.4-.2-.7Z"/>
  <path class="st0" d="M1176.8,555.1c-.9-8.3-1.8-16.7-2.6-25-.5-4.6-.2-11.9-1.3-17.5s-4.3-2.7-5,0-.9,8.1-1.3,11.4c-2.6,20-2.9,40.3-2.6,60.5.2,13.6-2.1,29.7,2,43.3,1.2,4,7,4,8.1,0,2-7.1,2.1-15.7,2.8-22,1.9-17.2,1.6-35.2,0-50.4Z"/>
  <path class="st0" d="M770.8,539.7c6.7,17.2,30.8,7.4,23.6-9.6-6.7-17.2-30.8-7.4-23.6,9.6Z"/>
  <path class="st0" d="M952.8,532.9c-3.7-4.5-9.9-2.9-11.4,2.6-1.1,3.9,3.2,10.6,3.9,14.8,2.5,13.8,1.3,28.1-.4,42-1.7,13.9-4.2,27.7-4.5,41.8-.2,8-3.2,24.4,4.7,29.9,6.5,4.5,16.7-1.5,19-8.2,1.5-4.5,1-9.4.5-14.1,0-27.4-8-54.4-8-81.6-.8-6.3,0-21.9-3.9-26.9,0,0,0,0,0,0Z"/>
  <path class="st0" d="M406.1,617.9c6.7,2.7,8-12.7,6.4-17.2-9.7-14.5-13.7,11.5-6.4,17.2Z"/>
  <path class="st0" d="M862.5,695.9c15.9-18.3,19.1-34.7,5.3-56.9-16.3-26.2-51.9-46.7-82.2-32.2-25.5,12.2-40.6,45.4-27.4,71.5,7.1,14.1,20.4,24,30.7,36,33.6,39.1,22.1,86.3,19.2,132.9-.6,9.5-7.7,40.8-1.7,48.2,16.5,20.4,15.8-23.8,15.8-31.4-.2-31.9-5.1-64.1,1.3-95.8,2.3-11.6,6.1-22.2,11.1-32,7.2-14.4,16.9-27.4,28.1-40.3Z"/>
  <path class="st0" d="M1233.1,606.7c3,0,6.7-35.9,7.1-39.4.4-2.9.7-6-.3-8.7-1.5-4.3-7.5-7.3-11.3-3.8-3.5,3.3-2.4,9.3-1.7,13.5,1.1,6.6,2.1,13.2,3.1,19.9.3,2.2.3,18.5,3.1,18.6Z"/>
  <path class="st0" d="M1075.3,921.7c9.1,25.7,10.9,51.5,9.9,78.5,0,1.5.2,3.4,1.6,3.9,1.1.4,2.4-.6,2.8-1.7s.2-2.4,0-3.5c-3.1-18.7-2.6-38.1,1.5-56.6.6-2.5,1.2-5.2,3-7,5.6-5.7,11.5,3.3,13.5,7.8,2.2,5,2.8,10.6,3.4,16,4.8,45.1,5.9,90.9,3.9,136.2-1.5,32.7-4.4,65.7-4.4,98.5-.2,5.1-.4,10.4,1.6,15.1,2,4.7,7,8.5,12,7.6,4.2-.8,7.3-4.9,8.3-9.1,1-4.2.4-8.6-.2-12.9-12.7-93.2-8.7-187.7-9.4-281.8,0-9.6-.3-19.7-5.1-28.1-10.5-18.1-46.8-12.9-46.8,10,0-18.3-7.8-38.7-9-57.5-1.2-18.6-.8-37.2-1.3-55.8-.7-26.3,5.2-56.9,16-80.8,5.7-12.6,12-25.2,13.8-38.9,3.8-28.8-16.9-48.6-45.9-42.6-14.1,2.9-26.7,14.2-29.3,28.4-3.6,19.9,11.6,27.5,22,40.6,10,12.5,16.1,27,19.3,42.7,6.5,32,2.3,65-.4,97.2-2.3,27.3-6.2,53.6-3,81.1.8,6.5,2.2,13.7,7.5,17.6,4.5,3.3,14.2,1.9,14.7-4.7,0,0,0,0,0-.1Z"/>
  <path class="st0" d="M184.7,465.6c-4.1,1.5-6.2,6.7-7.2,10.5-1.5,5.6-1.6,11.8-.3,17.4,1.2,4.9,5.4,15.2,12.2,12.7,6-2.3,9.8-13.2,10.4-18.8.4-3.4-.1-8.6-1.7-13.2s-6.4-11.2-13.4-8.6Z"/>
  <path class="st0" d="M120.9,660.9c-7.1,18.5,18.3,27.9,24.9,9.2,7.1-18.5-18.3-27.9-24.9-9.2Z"/>
  <path class="st0" d="M673.9,647.9c-4.1,15.2,15.4,20.2,19.2,4.9,4.1-15.2-15.4-20.2-19.2-4.9Z"/>
  <path class="st0" d="M1173.8,669.4c-.6,15.2,12.9,15.6,13.3.4.6-15.2-12.9-15.6-13.3-.4Z"/>
  <path class="st0" d="M439.6,668.7c.6,10.8,9.1,10.3,8.3-.5-.6-10.8-9.1-10.3-8.3.5Z"/>
  <path class="st0" d="M1337.8,918.6c-.3-.9-.6-1.8-.9-2.7-7.4-23.1-10.7-47.6-9.9-71.8.4-12.1,1.8-24.2,4.3-36.1,2.5-12,6.9-23.3,7.1-35.6.2-12.2-1-24.5-3.6-36.5-5.3-24.7-17.5-54.2-43-64-33.4-12.8-68.2,12.7-82.5,41.8-9.6,19.5-11.5,41.8-7,62.9,4.9,23.2,20.2,41,34.7,59,7.3,9,14.3,18.3,19.6,28.7,4.7,9.1,7.7,19,11.5,28.4,1.2,3,3.1,9.6,7.3,7.3,3-1.7,3.1-10.8,3.6-13.8,2.8-19.3,14.5-36.3,29.7-48.1,2.5-2,5.8-3.9,8.8-2.6,3.7,1.5,4,6.5,3.7,10.5-1.7,25.4-3.4,50.9-5.1,76.3-.3,5.1-.7,10.4,1,15.3,1.7,4.9,6,9.2,11.2,9.3,6.3.1,11.2-6.2,11.9-12.5.6-5.3-.9-10.6-2.5-15.7Z"/>
  <path class="st0" d="M195.8,753.2c-.3,4.4-3.8,20.2,5.5,17.9,8.2-2,4.7-17.1,4-22.5-2.4-19.2-5.4-38.9-1.3-58.1,1-5.4-4.4-11.3-9.3-6.2-4,4.1.6,15.8,1.2,20.7,0,.5.1.9.2,1.4,1.7,15.5.7,31.2-.2,46.7Z"/>
  <path class="st0" d="M280.6,1058.3c2-13.3,7.7-36.5,25.6-35.1,22,1.7,9.3,67.5,8.1,79.7-4.8,47-4.2,94.7-8.1,141.8-.5,8.4,1.7,20,10.2,20.1,4.6,0,8.5-4.1,9.7-8.5s.4-9.2-.4-13.8c-10.2-61.3-11.9-124-5.1-185.8,2.6-23.5,8.9-49.9,3.9-73.1-5.7-26.1-9.6-52.5-11.1-79.2-2.9-53.3,3.3-107.1,18.4-158.3,4.6-15.5,10-31.5,7.3-47.4s-17.1-31.2-33-28.3c-12.1,2.2-20.5,14.1-22.4,26.2-1.9,12.1,1.4,24.4,5.2,36.1,6,18.7,13.2,37.1,17.5,56.2,7.5,33.3,0,67.4-7.9,100-1.6,6.4-19.9,75.2-33.5,67.1-4-2.4-8.3-4.7-12.9-5.6-7.1-1.4-14.5.8-20.7,4.4s-10.5,9-16.2,12.9c-2-16.9.9-35.9,4.2-52.5,1.1-5.5,3.2-10.9-1.3-15.7-4.9-5.3-12.2-2.6-15.5,3.3-2.3,4.2-2.7,9.1-3.1,13.9-4,56.6-7.9,113.1-11.9,169.7-.5,7.8-1,16,2.1,23.2,3.1,7.2,11,13,18.6,11,5.5-1.5,9.4-6.7,10.9-12.3,1.5-5.5,1-11.4.6-17.1-1.8-22-3.6-43.9-5.5-65.9,28.7,37.5,38.6,83.3,41.3,129.7,2.7,46.2-.7,92.7,6,138.5,1-78.7,7.5-157.3,19.3-235.1Z"/>
  <path class="st0" d="M382.8,686.3c-8.5,7.8,2,18.9,10.3,10.9,8.5-7.8-2-18.9-10.3-10.9Z"/>
  <path class="st0" d="M645.7,767.9c-21.4,30.2,19.2,58.2,39.9,27.5,21.4-30.2-19.2-58.2-39.9-27.5Z"/>
  <path class="st0" d="M1208.9,223.5c2.7-53.8-49.4-66.4-52.1-7.5-2.3,47.7,34.1,56.7,47.4,28.2,2.6-5.5,4.3-12.4,4.7-20.7Z"/>
  <path class="st0" d="M452.4,920.3c-1.6-25.1-1.7-50.3-.5-75.4,1-20.4,2.9-40.8,5.8-61.1,1.2-8.2,7-35.7-8.7-34.9-15.7.8-7,38.2-6.4,47.7.9,12.4,3.3,25.1,3,37.6-1.3,63.7-2.7,127.5-4,191.2,0,3.7.4,8.3,3.8,9.7,4.6,1.9,8.5-3.9,9.9-8.7.9-3,1.6-6,2.2-9,6.7-32.9-3.1-63.7-5.2-97.1Z"/>
  <path class="st0" d="M409.9,780.6c-1.7-5.6-8.1-6.3-12.3-2s-2.4,10.2-.9,14.8c3.1,9.5,5.7,17.4,3,27.5-1.5,5.7-4.3,11-4.8,16.8-.4,5,2.7,13.5,8.6,13.9s7.6-12.6,7.5-18c-.2-9-.4-18-.5-27s1-14.6.3-21.5c-.2-1.6-.5-3.2-.9-4.6Z"/>
  <path class="st0" d="M354.9,787.9c55.4,1.1-4.3,111.1-4.3,166.4-.1,3-.2,6,.9,8.8,3.3,8.1,11,4.3,12.3-2.5s-1.8-14.4-2.9-20.6c-2.8-15-7-28.8-5.3-43.9,4.1-36-36.7-108.9-.6-108.2Z"/>
  <path class="st0" d="M1016.7,799.9c.2,13.2.7,26.5.2,39.7-.5,13.4-1.5,26.8-2.7,40.1-1.4,15.8-2.9,31.6-3.9,47.5-.9,14.2-.6,28.4-.7,42.6,0,3.8,0,7.8,2.1,11,2.6,4,7.5,4.1,11.3,2s5.6-7,6-11.2c1-10.1-1.5-20.6-3.5-30.4-1-5-2.1-9.9-3-14.9-3.4-19.9-1.4-40.4-1.9-60.6-.4-17.5-1.3-34.9-2.7-52.3-.4-4.5-.8-8.9-1.2-13.4Z"/>
  <path class="st0" d="M149,888.3c5.9-3.6,7.3-30.7-4.1-28.1-8.6,1.9-6.3,26.9,1,28.7s2,0,3.2-.6Z"/>
  <path class="st0" d="M242.3,867.5c.7,9.5,11.5,8.7,10.7-.8-.7-9.5-11.5-8.7-10.7.8Z"/>
  <path class="st0" d="M741.5,752.1c-7.6,4-5.7,31.6,6.3,23.9,5.6-3.6,6.5-18.8,1.3-23.6-1.8-1.7-4.3-2.1-7.7-.4Z"/>
  <path class="st0" d="M1149.6,104.1c-13.6,4-10.2,31.6,11.4,23.9,10.2-3.6,11.7-18.8,2.4-23.6-3.2-1.7-7.8-2.1-13.8-.4Z"/>
  <path class="st0" d="M1166.4,1005.5c2-48.5-9.2-96.4,4.7-144.3,6.5-44.5-30.2-36.7-27.1,1.8,2,26.1,6.2,52.1,7.2,78.3.4,11.2.6,22.4-.8,33.5-1,8.2-5,15.1-6,23-2.6,20.2,3.2,43,5,63.1,4.3,46.7,2,93.9-6.7,140-1.5,8.2-3.3,16.9-.4,24.7,2.9,7.8,12.4,13.9,19.7,9.9,7.4-3.9,7.8-14.2,7.2-22.5-2.2-30.7-7-61.2-8-92.1-1.1-31.6.1-63.3,3.5-94.8.7-6.9,1.4-13.7,1.7-20.6Z"/>
  <path class="st0" d="M929,830.3c-1.2-4.2-4.4-22.6-10-23s-5.8,22.8-6.2,26.9c-1.9,20.9-2.8,42-2.5,63,0,3.9.1,7.8,1.5,11.4,4.6,11.9,18.3,9.1,23.5-.5,4.4-8.1,5.9-17.7,5.5-26.8-.2-4-.7-8-1.4-12-2.3-13.2-6.9-26.3-10.4-38.9Z"/>
  <path class="st0" d="M690.2,888.1c-8.1,13.7-8.8,30.8-4.6,46.1,2.6,9.3,13.8,41.3,26.8,39.4,3.1-.4,5.7-2.3,8.2-4.2,17.1-13.1,31.5-31.4,38.9-51.8,6.6-18.3.8-36.1-17-44.8-6.9-3.4-14-4.9-20.8-4.6-12.5.5-23.9,7.2-31.4,19.8Z"/>
  <path class="st0" d="M1223.9,952.2c11.2-7,1.2-22.5-9.8-15.2-11.2,7-1.2,22.5,9.8,15.2Z"/>
  <path class="st0" d="M818.4,1115.2c2.6-.2,5-1.8,6.9-3.6,16.6-15.6,8-36.7,1.7-54.5-7.8-22.1-5.5-51.1-4.7-74.2.3-7.1,8.3-60.4-2.9-61.9-6.8-.9-5.5,14-5.2,17.6.8,10.5,2.3,20.2,1.6,30.8-1.4,23.1-7,45.6-10.5,68.3-3.5,23.2-5.2,46.9,4.2,69,1.4,3.4,3.8,8,7.9,8.4s.6,0,.9,0Z"/>
  <path class="st0" d="M907.6,1176.6c-1.2,9.6-2.4,21.8,1.8,30.8,1.8,4,5.8,7.3,10.2,6.9,4.1-.3,7.4-3.9,8.8-7.8s1.2-8.1,1-12.3c-2.1-47.2-4.2-94.3-6.4-141.5-.5-10.9-.6-44.1-20-37-4.5,1.7-7.9,5.3-10.9,9.1-16.3,20.4-37.1,63.9-6.3,82,10.9,6.4,20,1.8,30.3-2.5,0,23.7-5.7,48.7-8.6,72.3Z"/>
  <path class="st0" d="M403.1,1103.4c-4.5,15.7-11.6,30.8-14.1,47-6.2,39.1,17.6,74.3,10.5,114.4-.8,4.4-1.8,8.9-1.6,13.4.6,14.6,11.4,11.9,12.6-.2s-3.1-16.6-4.3-24.6,0,0,0,0c-1.5-9.4-.6-15.8,2-24.6,6.3-21.1,4.4-43.6,4.8-65.6.2-12.5.4-25.1.7-37.6.7-37,1.8-74.1,3.2-111.1.2-6-.2-13.2-5.3-16.3-10.6-6.3-15.6,9.1-14.6,16.4,1.2,8.3,6.7,15.7,9.3,23.6,3.5,10.7,4,22.7,2.9,34.6s-3.3,21.1-6,30.5Z"/>
  <path class="st0" d="M1233.3,1155.6c4.2-19.5-3-40.3-5.7-59.7-2.8-20.9-4.4-42.1-1-63.1,1.2-7.6,3.2-25.9-10.2-23.2s-2.7,16.2-2,23.2c2.5,25.2-3,50.4-4.4,75.5-6.4,13.6-6.8,33.4-2.7,47.8,2.5,8.6,13.9,17.5,21.9,8.8,2.3-2.5,3.3-5.8,4-9.1s0,0,0-.1Z"/>
  <path class="st0" d="M624.4,1216.8c-3.8,18.1-3.8,38,4.3,55,7.8,16.3,23.2,21.4,39.2,13,13.1-6.8,23-19.4,26.5-33.7,5.7-22.8-7-37.8-15.2-57.5-6.6-16-12.8-31.9-17.2-48.7-8.7-33.3-11.7-68.2-7-102.3,1.8-13.1,4.7-26-1.4-38.8-3.2-6.9-11.6-9.6-16.1-1.6-2.6,4.6.2,11.5,2,16s3.7,11.6,4.9,18c2.5,14.1,4.1,28.3,4.9,42.6,1.5,28.2-.3,56.7-6.6,84.2-3.7,16.1-11.7,30.4-16.3,46.1-.8,2.5-1.4,5.1-2,7.7Z"/>
  <path class="st0" d="M739.7,1101.9c-1.3-11.7-4-24.1-4-35.9-.6-5.7,1.2-13.3-1.1-18.6-1.8-4.3-5.9-6.3-9.5-2.2-4.1,4.6-.8,15.4-.8,20.9,0,6.6.1,13.2-.4,19.8-1.2,14.8-6.7,35.5-2.8,49.9,4.2,15.2,21.3,9.9,23.1-3.6.7-5.5-.3-11.2-1.7-16.8-1.1-4.6-2.3-9.2-2.8-13.6Z"/>
  <path class="st0" d="M178.3,1133.6c-1.4-8.3,8.4-60.7-7.2-58.9s-3.6,28.3-3.2,34.1c.8,14.1-.4,28.4-3.5,42.2-2.4,10.3-5.9,20.5-6.8,31.1-1.4,16,4.4,37,24,27.3,11.8-25-3.9-49.1-3.2-75.8Z"/>
  <path class="st0" d="M1276.3,1122.2c-6.5-14.5,13.3-24.3,5.3-38.4-6.3-11.1-21.7-9.1-18.8,4.6,3.6,17,7,31.5,2.6,49-1,4.1-2.4,8.3-2,12.5.9,10.6,12.4,13.2,15.8,2.6,2.8-8.7,3.1-22.7-2.9-30.3Z"/>
  <path class="st0" d="M810.8,51c.6-5-1.3-10.4-5.4-13.3-3.9-2.7-9.3-2.1-11.4,2.6-.9,2.1-1,4.4-1.1,6.7,0,12.5,3.6,23.9,5.8,36,1.1,6,1.5,11.9,1.8,18.1s-2.6,11.2-4.1,16.9c-1.4,5.2-1.6,14.1,1.7,18.6,2.4,3.3,7,1.5,8.7-1.6,1.1-1.9,1.3-4.2,1.3-6.4,0-4.3-.6-8.7-1.9-12.9-1.2-4.1-3.7-7.5-3.8-11.8-.2-5.8.2-11.6,1.1-17.2,1.9-12,5.6-23.6,7.2-35.7Z"/>
  <path class="st0" d="M158.9,78.1c0-31.7-36.2-61.8-65-36.9-27.5,23.9-3.6,68.3,2.5,96.7,7.2,33,10.1,67.1,9.7,100.8-.3,29.9,1.5,74-10.9,101.8-12.9,28.9,29.1,46.1,23.9,8.7-34.5-281.6,40.3-10.8,39.7-271Z"/>
  <path class="st0" d="M818.5,1178.1c-16.4,24.9,17.1,46.3,32.8,21.1,16.4-24.9-17.1-46.3-32.8-21.1Z"/>
  <path class="st0" d="M359.9,121.9c1-5.1,1.4-10.4,1.2-15.6s-1.2-20-5.4-21.2c-5.5-1.6-12.8,15.7-14.6,20-2,5-2.7,10.7-.7,15.8,1.8,4.7,7.9,19.2,14.9,12.7,1.7-1.6,2.5-3.8,3.2-5.9.6-1.9,1.1-3.8,1.5-5.8Z"/>
  <path class="st0" d="M583.1,199.2c-.4-2.7-.6-5.4-.6-8.2-.1-4.3.7-8,1.2-12.2.5-4.5,1.2-11.4-3.5-14-2.1-1.2-4.9-1.1-7,.2-3.9,2.4-3.4,7.5-3.1,11.5.9,10.5,2.9,20.3.4,30.7-1.6,6.9-2.9,13.5-3.4,20.6-.6,6.8-1.5,14.4,2,20.6,1.6,2.8,4.2,5.2,7.4,5.4,3,.2,5.8-1.7,7.4-4.1,5.3-7.8,3.8-18.4,2.7-27-.9-6.3-1.5-12.4-2.7-18.7-.3-1.6-.6-3.2-.8-4.8Z"/>
  <path class="st0" d="M137.8,918.6c-.3-.9-.6-1.8-.9-2.7-7.4-23.1-10.7-47.6-9.9-71.8.4-12.1,1.8-24.2,4.3-36.1,2.5-12,6.9-23.3,7.1-35.6.2-12.2-1-24.5-3.6-36.5-5.3-24.7-17.5-54.2-43-64-33.4-12.8-68.2,12.7-82.5,41.8-9.6,19.5-11.5,41.8-7,62.9,4.9,23.2,20.2,41,34.7,59,7.3,9,14.3,18.3,19.6,28.7,4.7,9.1,7.7,19,11.5,28.4,1.2,3,3.1,9.6,7.3,7.3s3.1-10.8,3.6-13.8c2.8-19.3,14.5-36.3,29.7-48.1,2.5-2,5.8-3.9,8.8-2.6,3.7,1.5,4,6.5,3.7,10.5-1.7,25.4-3.4,50.9-5.1,76.3-.3,5.1-.7,10.4,1,15.3,1.7,4.9,6,9.2,11.2,9.3,6.3.1,11.2-6.2,11.9-12.5.6-5.3-.9-10.6-2.5-15.7Z"/>
  <path class="st0" d="M1071.1,20.1c4.3-17.6-22.1-30.6-23.7-8.2-1.7,22.2,9.2,44.3,7.7,66.7,5.2,9.8-6,34.9,7.4,33.1-.3-31.2,2.3-61.2,8.6-91.7Z"/>
</svg>