<?xml version="1.0" encoding="UTF-8"?>
<svg id="Layer_1" xmlns="http://www.w3.org/2000/svg" version="1.1" viewBox="0 0 991.2 723">
  <!-- Generator: Adobe Illustrator 30.1.0, SVG Export Plug-In . SVG Version: 2.1.1 Build 136)  -->
  <defs>
    <style>
      .st0 {
        fill: #fff;
      }
    </style>
  </defs>
  <g>
    <path class="st0" d="M440.3,177.7c-11.7-13.4,0-23.6,0-23.6,0,0-23.1-12.2-21.4-38.9,1.7-26.7,26.8-29.2,26.8-29.2,0,0-5.7-18.4,15.9-36,21.5-17.6,34.7,1.4,34.7,1.4,0,0-.2-26.9,28.8-29.5,29-2.6,58.4,21.3,61.6,36.8,3.3,15.5-20,17.5-20,17.5,6.7,6.8,8,24.3,8,25,3.2-12.6,21.4-19.1,31.5-10.1.3.3.7.6,1,.9,9.9,10.3-.3,25.3-.3,25.3,11.1-3.5,21,4.3,21,4.3,0,0-3.5-16.4,4-22.8,7.6-6.4,15.2,2.6,15.2,2.6,0,0-4-12.3,9.8-18.5,13.8-6.2,20.5,9.3,20.5,9.3,14.3-14.5,36.4-17.5,50.2-.7,13.5,16.4,7.6,38.6,7.3,39.6h0c13.3-4.7,28.7,8.1,29.2,8.5-.2-.3-3.9-5.5-5-18.6-1.2-13.4,9.7-19.1,9.7-19.1,0,0-13-15,1.5-26.3,14.6-11.3,26.3,9,26.3,9,0,0,0-21.3,11.4-21.9,11.3-.6,13,12.7,13,12.7,0,0,10.7-8.3,19.8,2.6h0c.5.7,1.1,1.4,1.6,2.2,9.4,14.1.8,25.7.8,25.7,17.1-.9,25.8,23.2,25.8,23.2,17.5-7.5,26.3,7,26.3,7,0,0,10.3-8.8,24.6-2.7,1.1.5,2.1,1,3,1.6,10.9,7.1,7.8,22.3,7.8,22.3,0,0,10.9,9.4,7,25.9-3.9,16.5-25.7,20.4-25.7,20.4,14.1-11.9,7.7-21.9,7.7-21.9,0,0,0,0,0,0-.9.6-8.9,5.3-19.3-4.1-10.8-9.8-4.7-20.6-4.5-21.1h0c-11.9.7-15.5-13.7-15.5-13.7,0,0-3.9,12.9-15,13.1-11.1.2-21.6-9-21.6-9,0,0,1.8,13.6-9.3,18.1-11.2,4.5-21.1-1.3-21.1-1.3,0,0-7.2,15.8-25.3,18.6-18.1,2.8-19.4-15.5-19.4-15.5-12.6,10.5-27,2-27,2,.4,7.1-3.2,14.4-3.2,14.4,0,0,17.1,26.7-9.3,30.8-26.4,4.2-31.6-16-31.6-16,0,0-2.7,9.3-22.4,12.2-19.6,2.9-25.4-9.2-25.4-9.2,0,0-21.8,12.1-34.9-2-6.8-7.3-9.7-17.1-10.9-24.9h0c-1.1-7.1-.9-12.4-.8-12.8-4,8.4-15.3,10.3-16,10.4h0c17.5,16.7,9.9,42.5-12.3,44.8-22.3,2.3-25.2-12.9-25.2-12.9,0,0-7.1,10.5-26.4,7.5-19.4-3.1-20-22.6-20-22.6,0,0-10.5,8.2-24.9,6.4-14.4-1.8-12.4-14.9-12.4-14.9,0,0-14.3,11.3-26-2.2h0Z"/>
    <path class="st0" d="M824.7,115.7s-1.8-10-10.6-18.2c1.3,1.1,10.3,8,21.4-.3,11.7-8.8,5.9-19,5.6-19.4.5.6,1.1,1.4,1.6,2.2,9.4,14.1.8,25.7.8,25.7,0,0-14.2-1.5-18.8,10.1h0Z"/>
    <path class="st0" d="M615.3,198.9c-6.8-7.3-9.7-17.1-10.9-24.9.3.6,8,18.1,21.9,22.4,14.2,4.4,27.6-10.3,27.6-10.3,0,0,2,12.5,20,12.1,18-.4,28.3-23.2,28.3-23.2,0,0,.7,8.6,5.2,14,4.5,5.4,22.5-.2,23.3-11.7.8-11.5-14.1-13.5-14.1-13.5,15.5-4.9,18.8-19.7,19-20.6,0,.9-.6,16.8,14.7,19.2,15.7,2.4,23.7-8.6,23.7-8.6,0,0,2.5,21.9,17.3,18.5,14.8-3.4,18.6-25.4,18.6-25.4,0,0,6.1,4.7,18.1,2.3,12-2.4,13.5-14.4,13.5-14.4,0,0,5.8,9.9,16.5,10.9,10.7.9,12-11.5,12-11.5,3.6,8.1,10.7,8.7,10.7,8.7,0,0-3.9,12.9-15,13.1-11.1.2-21.6-9-21.6-9,0,0,1.8,13.6-9.3,18.1-11.2,4.5-21.1-1.3-21.1-1.3,0,0-7.2,15.8-25.3,18.6-18.1,2.8-19.4-15.5-19.4-15.5-12.6,10.5-27,2-27,2,.4,7.1-3.2,14.4-3.2,14.4,0,0,17.1,26.7-9.3,30.8-26.4,4.2-31.6-16-31.6-16,0,0-2.7,9.3-22.4,12.2-19.6,2.9-25.4-9.2-25.4-9.2,0,0-21.8,12.1-34.9-2h0Z"/>
    <path class="st0" d="M673.3,135.1c-12-.8-15-20.1-15-20.1,0,0,4,6.6,13.2,8.6,9.2,2,14.5-6.5,14.5-6.5,0,0,8.3,15.6,26.3,6.4,18.1-9.2,15.7-32.2,15.7-32.2,13.5,16.4,7.6,38.6,7.3,39.6h0c-32.5,23.3-48.9-5.7-48.9-5.7,0,0-1.1,10.7-13.1,9.9h0Z"/>
    <path class="st0" d="M580.1,125.7c-7.8-3-5.6-14.7-5.6-14.7,0,0,2,15.9,20.8,7.4,18.8-8.5,11.2-27.6,11.2-27.6.3.3.7.6,1,.9,9.9,10.3-.3,25.3-.3,25.3-9.5,7.2-19.3,11.5-27.1,8.5h0Z"/>
    <path class="st0" d="M528.5,83.4c-24,8.2-14.1,22.7-14.1,22.7,0,0-3.9-5.8-15-4.1-11.2,1.7-12.3,20.5-12.3,20.5.3-17-15.4-30.2-15.4-30.2,0,0,10.6,5,23,.8,12.3-4.2,11-17.6,11-17.6,8.3,10,22.8,8.1,22.8,8.1h0Z"/>
    <path class="st0" d="M440.4,177.7c-11.7-13.4,0-23.6,0-23.6,0,0-2.5,16.9,8.1,19.9,10.5,2.9,17-10,17-10,0,0,2.1,12,14.7,15.6,12.6,3.7,25.8-9.3,25.8-9.3,0,0,3.5,29.3,21.1,28.2,17.6-1,15.2-16.6,15.2-16.6-13.3-2.9-17-19.1-17-19.1,0,0,3.5,5.2,16.3,6.2,12.8,1.1,19.8-8.2,19.8-8.2,1.1,11.8-10.8,19.4-10.8,19.4,0,0,11.7,40.7,30.3,25.4,18.6-15.3-2.2-39.7-2.2-39.7l8.7,5.7c17.5,16.7,9.9,42.5-12.3,44.8-22.3,2.3-25.2-12.9-25.2-12.9,0,0-7.1,10.5-26.4,7.5-19.4-3.1-20-22.6-20-22.6,0,0-10.5,8.2-24.9,6.4-14.4-1.8-12.4-14.9-12.4-14.9,0,0-14.3,11.3-26-2.2h0Z"/>
    <path class="st0" d="M910,158.7s10.7,3,14.8-3c4.1-6.1,2.7-14.3-1.6-20.9,10.9,7.1,7.8,22.3,7.8,22.3,0,0-1.5,6-7.9,7.5-6.4,1.5-13.2-5.8-13.2-5.8h0Z"/>
  </g>
  <g>
    <path class="st0" d="M469.6,177.7c-11.7,13.4-26,2.2-26,2.2,0,0,2,13-12.4,14.9-14.4,1.8-24.9-6.4-24.9-6.4,0,0-.6,19.5-20,22.6-19.4,3.1-26.4-7.5-26.4-7.5,0,0-2.9,15.3-25.2,12.9-22.3-2.3-29.8-28.1-12.3-44.8h0c-.7-.1-12-2-16-10.4,0,.3.3,5.7-.8,12.7h0c-1.2,7.8-4.1,17.7-10.9,24.9-13.1,14-34.9,2-34.9,2,0,0-5.8,12.2-25.4,9.2-19.6-2.9-22.4-12.2-22.4-12.2,0,0-5.2,20.2-31.6,16-26.4-4.2-9.3-30.8-9.3-30.8,0,0-3.6-7.2-3.2-14.4,0,0-14.3,8.4-27-2,0,0-1.2,18.3-19.4,15.5-18.1-2.8-25.3-18.6-25.3-18.6,0,0-9.9,5.7-21.1,1.3-11.2-4.5-9.3-18.1-9.3-18.1,0,0-10.5,9.2-21.6,9-11.1-.2-15-13.1-15-13.1,0,0-3.6,14.4-15.5,13.7h0c.3.5,6.4,11.3-4.5,21.1-10.4,9.4-18.4,4.7-19.3,4.1,0,0,0,0,0,0,0,0-6.4,10,7.7,21.9,0,0-21.9-3.9-25.7-20.4-3.9-16.5,7-25.9,7-25.9,0,0-3-15.2,7.8-22.3.9-.6,1.9-1.1,3-1.6,14.3-6.1,24.6,2.7,24.6,2.7,0,0,8.9-14.6,26.3-7,0,0,8.7-24.1,25.8-23.2,0,0-8.6-11.6.8-25.7.5-.8,1.1-1.5,1.6-2.2h0c9.1-10.9,19.8-2.6,19.8-2.6,0,0,1.7-13.3,13-12.7,11.3.6,11.4,21.9,11.4,21.9,0,0,11.7-20.3,26.3-9,14.6,11.3,1.5,26.3,1.5,26.3,0,0,10.8,5.7,9.7,19.1-1.1,13.1-4.8,18.3-5,18.6.5-.4,15.9-13.2,29.2-8.5h0c-.3-1-6.2-23.2,7.3-39.6,13.8-16.8,35.9-13.8,50.2.7,0,0,6.7-15.5,20.5-9.3,13.8,6.2,9.8,18.5,9.8,18.5,0,0,7.7-9,15.2-2.6,7.6,6.4,4,22.8,4,22.8,0,0,9.8-7.7,21-4.3,0,0-10.2-15-.3-25.3.3-.3.6-.6,1-.9,10.1-9,28.3-2.6,31.5,10.1,0-.7,1.3-18.2,8-25,0,0-23.3-2-20-17.5,3.3-15.5,32.6-39.4,61.6-36.8,29,2.6,28.8,29.5,28.8,29.5,0,0,13.2-18.9,34.7-1.4,21.6,17.6,15.9,36,15.9,36,0,0,25.1,2.5,26.8,29.2,1.7,26.7-21.4,38.9-21.4,38.9,0,0,11.8,10.2,0,23.6h0Z"/>
    <path class="st0" d="M85.3,115.7c-4.5-11.6-18.8-10.1-18.8-10.1,0,0-8.6-11.6.8-25.7.5-.8,1.1-1.5,1.6-2.2-.2.4-6.1,10.6,5.6,19.4,11,8.3,20.1,1.4,21.4.3-8.8,8.3-10.6,18.2-10.6,18.2h0Z"/>
    <path class="st0" d="M294.7,198.9c-13.1,14-34.9,2-34.9,2,0,0-5.8,12.2-25.4,9.2-19.6-2.9-22.4-12.2-22.4-12.2,0,0-5.2,20.2-31.6,16-26.4-4.2-9.3-30.8-9.3-30.8,0,0-3.6-7.2-3.2-14.4,0,0-14.3,8.4-27-2,0,0-1.3,18.3-19.4,15.5-18.1-2.8-25.3-18.6-25.3-18.6,0,0-9.9,5.7-21.1,1.3-11.2-4.5-9.3-18.1-9.3-18.1,0,0-10.5,9.2-21.6,9-11.1-.2-15-13.1-15-13.1,0,0,7.1-.6,10.7-8.7,0,0,1.3,12.4,12,11.5,10.7-.9,16.5-10.9,16.5-10.9,0,0,1.5,12,13.5,14.4,12,2.4,18.1-2.3,18.1-2.3,0,0,3.8,22,18.6,25.4,14.8,3.5,17.3-18.5,17.3-18.5,0,0,7.9,11.1,23.7,8.6,15.3-2.4,14.8-18.3,14.7-19.2.2.9,3.5,15.7,19,20.6,0,0-14.9,1.9-14.1,13.5.8,11.6,18.8,17.1,23.3,11.7,4.5-5.4,5.2-14,5.2-14,0,0,10.3,22.8,28.3,23.2,18,.4,20-12.1,20-12.1,0,0,13.4,14.6,27.6,10.3,13.9-4.3,21.6-21.8,21.9-22.4-1.2,7.8-4.1,17.7-10.9,24.9h0Z"/>
    <path class="st0" d="M236.7,135.1c-12,.8-13.1-9.9-13.1-9.9,0,0-16.4,29-48.9,5.7h0c-.3-1-6.2-23.2,7.3-39.6,0,0-2.3,23,15.7,32.2,18.1,9.2,26.3-6.4,26.3-6.4,0,0,5.3,8.5,14.5,6.5,9.2-2,13.2-8.6,13.2-8.6,0,0-3.1,19.4-15,20.1h0Z"/>
    <path class="st0" d="M329.9,125.7c-7.8,3-17.6-1.4-27.1-8.5,0,0-10.2-15-.3-25.3.3-.3.6-.6,1-.9,0,0-7.7,19.1,11.2,27.6,18.8,8.5,20.8-7.4,20.8-7.4,0,0,2.2,11.7-5.6,14.7h0Z"/>
    <path class="st0" d="M381.5,83.4s14.6,1.9,22.8-8.1c0,0-1.3,13.4,11,17.6,12.3,4.2,23-.8,23-.8,0,0-15.6,13.2-15.4,30.2,0,0-1.2-18.8-12.3-20.5-11.2-1.7-15,4.1-15,4.1,0,0,9.9-14.4-14.1-22.7h0Z"/>
    <path class="st0" d="M469.6,177.7c-11.7,13.4-26,2.2-26,2.2,0,0,2,13-12.4,14.9-14.4,1.8-24.9-6.4-24.9-6.4,0,0-.6,19.5-20,22.6-19.4,3.1-26.4-7.5-26.4-7.5,0,0-2.9,15.3-25.2,12.9-22.3-2.3-29.8-28.1-12.3-44.8l8.7-5.7s-20.8,24.4-2.2,39.7c18.6,15.3,30.3-25.4,30.3-25.4,0,0-11.9-7.6-10.8-19.4,0,0,7,9.3,19.8,8.2,12.8-1.1,16.3-6.2,16.3-6.2,0,0-3.7,16.2-17,19.1,0,0-2.4,15.6,15.2,16.6,17.6,1,21.1-28.2,21.1-28.2,0,0,13.2,13,25.8,9.3,12.6-3.7,14.7-15.6,14.7-15.6,0,0,6.5,12.9,17,10,10.5-2.9,8.1-19.9,8.1-19.9,0,0,11.8,10.2,0,23.6h0Z"/>
    <path class="st0" d="M0,158.7s-6.8,7.3-13.2,5.8c-6.4-1.5-7.9-7.5-7.9-7.5,0,0-3-15.2,7.8-22.3-4.3,6.6-5.7,14.9-1.6,20.9C-10.7,161.8,0,158.7,0,158.7h0Z"/>
  </g>
  <g>
    <path class="st0" d="M562.3,177.7c-11.7-13.4,0-23.6,0-23.6,0,0-23.1-12.2-21.4-38.9,1.7-26.7,26.8-29.2,26.8-29.2,0,0-5.7-18.4,15.9-36,21.5-17.6,34.7,1.4,34.7,1.4,0,0-.2-26.9,28.8-29.5,29-2.6,58.4,21.3,61.6,36.8,3.3,15.5-20,17.5-20,17.5,6.7,6.8,8,24.3,8,25,3.2-12.6,21.4-19.1,31.5-10.1.3.3.7.6,1,.9,9.9,10.3-.3,25.3-.3,25.3,11.1-3.5,21,4.3,21,4.3,0,0-3.5-16.4,4-22.8,7.6-6.4,15.2,2.6,15.2,2.6,0,0-4-12.3,9.8-18.5,13.8-6.2,20.5,9.3,20.5,9.3,14.3-14.5,36.4-17.5,50.2-.7,13.5,16.4,7.6,38.6,7.3,39.6h0c13.3-4.7,28.7,8.1,29.2,8.5-.2-.3-3.9-5.5-5-18.6-1.2-13.4,9.7-19.1,9.7-19.1,0,0-13-15,1.5-26.3,14.6-11.3,26.3,9,26.3,9,0,0,0-21.3,11.4-21.9,11.3-.6,13,12.7,13,12.7,0,0,10.7-8.3,19.8,2.6h0c.5.7,1.1,1.4,1.6,2.2,9.4,14.1.8,25.7.8,25.7,17.1-.9,25.8,23.2,25.8,23.2,17.5-7.5,26.3,7,26.3,7,0,0,10.3-8.8,24.6-2.7,1.1.5,2.1,1,3,1.6,10.9,7.1,7.8,22.3,7.8,22.3,0,0,10.9,9.4,7,25.9-3.9,16.5-25.7,20.4-25.7,20.4,14.1-11.9,7.7-21.9,7.7-21.9,0,0,0,0,0,0-.9.6-8.9,5.3-19.3-4.1-10.8-9.8-4.7-20.6-4.5-21.1h0c-11.9.7-15.5-13.7-15.5-13.7,0,0-3.9,12.9-15,13.1-11.1.2-21.6-9-21.6-9,0,0,1.8,13.6-9.3,18.1-11.2,4.5-21.1-1.3-21.1-1.3,0,0-7.2,15.8-25.3,18.6-18.1,2.8-19.4-15.5-19.4-15.5-12.6,10.5-27,2-27,2,.4,7.1-3.2,14.4-3.2,14.4,0,0,17.1,26.7-9.3,30.8-26.4,4.2-31.6-16-31.6-16,0,0-2.7,9.3-22.4,12.2-19.6,2.9-25.4-9.2-25.4-9.2,0,0-21.8,12.1-34.9-2-6.8-7.3-9.7-17.1-10.9-24.9h0c-1.1-7.1-.9-12.4-.8-12.8-4,8.4-15.3,10.3-16,10.4h0c17.5,16.7,9.9,42.5-12.3,44.8-22.3,2.3-25.2-12.9-25.2-12.9,0,0-7.1,10.5-26.4,7.5-19.4-3.1-20-22.6-20-22.6,0,0-10.5,8.2-24.9,6.4-14.4-1.8-12.4-14.9-12.4-14.9,0,0-14.3,11.3-26-2.2h0Z"/>
    <path class="st0" d="M946.7,115.7s-1.8-10-10.6-18.2c1.3,1.1,10.3,8,21.4-.3,11.7-8.8,5.9-19,5.6-19.4.5.6,1.1,1.4,1.6,2.2,9.4,14.1.8,25.7.8,25.7,0,0-14.2-1.5-18.8,10.1h0Z"/>
    <path class="st0" d="M737.3,198.9c-6.8-7.3-9.7-17.1-10.9-24.9.3.6,8,18.1,21.9,22.4,14.2,4.4,27.6-10.3,27.6-10.3,0,0,2,12.5,20,12.1,18-.4,28.3-23.2,28.3-23.2,0,0,.7,8.6,5.2,14,4.5,5.4,22.5-.2,23.3-11.7.8-11.5-14.1-13.5-14.1-13.5,15.5-4.9,18.8-19.7,19-20.6,0,.9-.6,16.8,14.7,19.2,15.7,2.4,23.7-8.6,23.7-8.6,0,0,2.5,21.9,17.3,18.5,14.8-3.4,18.6-25.4,18.6-25.4,0,0,6.1,4.7,18.1,2.3,12-2.4,13.5-14.4,13.5-14.4,0,0,5.8,9.9,16.5,10.9,10.7.9,12-11.5,12-11.5,3.6,8.1,10.7,8.7,10.7,8.7,0,0-3.9,12.9-15,13.1-11.1.2-21.6-9-21.6-9,0,0,1.8,13.6-9.3,18.1-11.2,4.5-21.1-1.3-21.1-1.3,0,0-7.2,15.8-25.3,18.6-18.1,2.8-19.4-15.5-19.4-15.5-12.6,10.5-27,2-27,2,.4,7.1-3.2,14.4-3.2,14.4,0,0,17.1,26.7-9.3,30.8-26.4,4.2-31.6-16-31.6-16,0,0-2.7,9.3-22.4,12.2-19.6,2.9-25.4-9.2-25.4-9.2,0,0-21.8,12.1-34.9-2h0Z"/>
    <path class="st0" d="M795.3,135.1c-12-.8-15-20.1-15-20.1,0,0,4,6.6,13.2,8.6,9.2,2,14.5-6.5,14.5-6.5,0,0,8.3,15.6,26.3,6.4,18.1-9.2,15.7-32.2,15.7-32.2,13.5,16.4,7.6,38.6,7.3,39.6h0c-32.5,23.3-48.9-5.7-48.9-5.7,0,0-1.1,10.7-13.1,9.9h0Z"/>
    <path class="st0" d="M702.1,125.7c-7.8-3-5.6-14.7-5.6-14.7,0,0,2,15.9,20.8,7.4,18.8-8.5,11.2-27.6,11.2-27.6.3.3.7.6,1,.9,9.9,10.3-.3,25.3-.3,25.3-9.5,7.2-19.3,11.5-27.1,8.5h0Z"/>
    <path class="st0" d="M650.5,83.4c-24,8.2-14.1,22.7-14.1,22.7,0,0-3.9-5.8-15-4.1-11.2,1.7-12.3,20.5-12.3,20.5.3-17-15.4-30.2-15.4-30.2,0,0,10.6,5,23,.8,12.3-4.2,11-17.6,11-17.6,8.3,10,22.8,8.1,22.8,8.1h0Z"/>
    <path class="st0" d="M562.4,177.7c-11.7-13.4,0-23.6,0-23.6,0,0-2.5,16.9,8.1,19.9,10.5,2.9,17-10,17-10,0,0,2.1,12,14.7,15.6,12.6,3.7,25.8-9.3,25.8-9.3,0,0,3.5,29.3,21.1,28.2,17.6-1,15.2-16.6,15.2-16.6-13.3-2.9-17-19.1-17-19.1,0,0,3.5,5.2,16.3,6.2,12.8,1.1,19.8-8.2,19.8-8.2,1.1,11.8-10.8,19.4-10.8,19.4,0,0,11.7,40.7,30.3,25.4,18.6-15.3-2.2-39.7-2.2-39.7l8.7,5.7c17.5,16.7,9.9,42.5-12.3,44.8-22.3,2.3-25.2-12.9-25.2-12.9,0,0-7.1,10.5-26.4,7.5-19.4-3.1-20-22.6-20-22.6,0,0-10.5,8.2-24.9,6.4-14.4-1.8-12.4-14.9-12.4-14.9,0,0-14.3,11.3-26-2.2h0Z"/>
    <path class="st0" d="M1032,158.7s10.7,3,14.8-3c4.1-6.1,2.7-14.3-1.6-20.9,10.9,7.1,7.8,22.3,7.8,22.3,0,0-1.5,6-7.9,7.5-6.4,1.5-13.2-5.8-13.2-5.8h0Z"/>
  </g>
  <g>
    <path class="st0" d="M417,76.2c11.7,13.4,0,23.6,0,23.6,0,0,23.1,12.2,21.4,38.9-1.7,26.7-26.8,29.2-26.8,29.2,0,0,5.7,18.4-15.9,36-21.5,17.6-34.7-1.4-34.7-1.4,0,0,.2,26.9-28.8,29.5-29,2.6-58.4-21.3-61.6-36.8-3.3-15.5,20-17.5,20-17.5-6.7-6.8-8-24.3-8-25-3.2,12.6-21.4,19.1-31.5,10.1-.3-.3-.7-.6-1-.9-9.9-10.3.3-25.3.3-25.3-11.1,3.5-21-4.3-21-4.3,0,0,3.5,16.4-4,22.8-7.6,6.4-15.2-2.6-15.2-2.6,0,0,4,12.3-9.8,18.5-13.8,6.2-20.5-9.3-20.5-9.3-14.3,14.5-36.4,17.5-50.2.7-13.5-16.4-7.6-38.6-7.3-39.6h0c-13.3,4.7-28.7-8.1-29.2-8.5.2.3,3.9,5.5,5,18.6,1.2,13.4-9.7,19.1-9.7,19.1,0,0,13,15-1.5,26.3-14.6,11.3-26.3-9-26.3-9,0,0,0,21.3-11.4,21.9-11.3.6-13-12.7-13-12.7,0,0-10.7,8.3-19.8-2.6h0c-.5-.7-1.1-1.4-1.6-2.2-9.4-14.1-.8-25.7-.8-25.7-17.1.9-25.8-23.2-25.8-23.2-17.5,7.5-26.3-7-26.3-7,0,0-10.3,8.8-24.6,2.7-1.1-.5-2.1-1-3-1.6-10.9-7.1-7.8-22.3-7.8-22.3,0,0-10.9-9.4-7-25.9,3.9-16.5,25.7-20.4,25.7-20.4-14.1,11.9-7.7,21.9-7.7,21.9,0,0,0,0,0,0,.9-.6,8.9-5.3,19.3,4.1,10.8,9.8,4.7,20.6,4.5,21.1h0c11.9-.7,15.5,13.7,15.5,13.7,0,0,3.9-12.9,15-13.1,11.1-.2,21.6,9,21.6,9,0,0-1.8-13.6,9.3-18.1,11.2-4.5,21.1,1.3,21.1,1.3,0,0,7.2-15.8,25.3-18.6,18.1-2.8,19.4,15.5,19.4,15.5,12.6-10.5,27-2,27-2-.4-7.1,3.2-14.4,3.2-14.4,0,0-17.1-26.7,9.3-30.8,26.4-4.2,31.6,16,31.6,16,0,0,2.7-9.3,22.4-12.2,19.6-2.9,25.4,9.2,25.4,9.2,0,0,21.8-12.1,34.9,2,6.8,7.3,9.7,17.1,10.9,24.9h0c1.1,7.1.9,12.4.8,12.8,4-8.4,15.3-10.3,16-10.4h0c-17.5-16.7-9.9-42.5,12.3-44.8,22.3-2.3,25.2,12.9,25.2,12.9,0,0,7.1-10.5,26.4-7.5,19.4,3.1,20,22.6,20,22.6,0,0,10.5-8.2,24.9-6.4,14.4,1.8,12.4,14.9,12.4,14.9,0,0,14.3-11.3,26,2.2h0Z"/>
    <path class="st0" d="M32.6,138.1s1.8,10,10.6,18.2c-1.3-1.1-10.3-8-21.4.3-11.7,8.8-5.9,19-5.6,19.4-.5-.6-1.1-1.4-1.6-2.2-9.4-14.1-.8-25.7-.8-25.7,0,0,14.2,1.5,18.8-10.1h0Z"/>
    <path class="st0" d="M242,55c6.8,7.3,9.7,17.1,10.9,24.9-.3-.6-8-18.1-21.9-22.4-14.2-4.4-27.6,10.3-27.6,10.3,0,0-2-12.5-20-12.1-18,.4-28.3,23.2-28.3,23.2,0,0-.7-8.6-5.2-14-4.5-5.4-22.5.2-23.3,11.7-.8,11.5,14.1,13.5,14.1,13.5-15.5,4.9-18.8,19.7-19,20.6,0-.9.6-16.8-14.7-19.2-15.7-2.4-23.7,8.6-23.7,8.6,0,0-2.5-21.9-17.3-18.5-14.8,3.4-18.6,25.4-18.6,25.4,0,0-6.1-4.7-18.1-2.3-12,2.4-13.5,14.4-13.5,14.4,0,0-5.8-9.9-16.5-10.9-10.7-.9-12,11.5-12,11.5-3.6-8.1-10.7-8.7-10.7-8.7,0,0,3.9-12.9,15-13.1,11.1-.2,21.6,9,21.6,9,0,0-1.8-13.6,9.3-18.1,11.2-4.5,21.1,1.3,21.1,1.3,0,0,7.2-15.8,25.3-18.6,18.1-2.8,19.4,15.5,19.4,15.5,12.6-10.5,27-2,27-2-.4-7.1,3.2-14.4,3.2-14.4,0,0-17.1-26.7,9.3-30.8,26.4-4.2,31.6,16,31.6,16,0,0,2.7-9.3,22.4-12.2,19.6-2.9,25.4,9.2,25.4,9.2,0,0,21.8-12.1,34.9,2h0Z"/>
    <path class="st0" d="M184,118.8c12,.8,15,20.1,15,20.1,0,0-4-6.6-13.2-8.6-9.2-2-14.5,6.5-14.5,6.5,0,0-8.3-15.6-26.3-6.4-18.1,9.2-15.7,32.2-15.7,32.2-13.5-16.4-7.6-38.6-7.3-39.6h0c32.5-23.3,48.9,5.7,48.9,5.7,0,0,1.1-10.7,13.1-9.9h0Z"/>
    <path class="st0" d="M277.2,128.2c7.8,3,5.6,14.7,5.6,14.7,0,0-2-15.9-20.8-7.4-18.8,8.5-11.2,27.6-11.2,27.6-.3-.3-.7-.6-1-.9-9.9-10.3.3-25.3.3-25.3,9.5-7.2,19.3-11.5,27.1-8.5h0Z"/>
    <path class="st0" d="M328.8,170.5c24-8.2,14.1-22.7,14.1-22.7,0,0,3.9,5.8,15,4.1,11.2-1.7,12.3-20.5,12.3-20.5-.3,17,15.4,30.2,15.4,30.2,0,0-10.6-5-23-.8-12.3,4.2-11,17.6-11,17.6-8.3-10-22.8-8.1-22.8-8.1h0Z"/>
    <path class="st0" d="M416.9,76.2c11.7,13.4,0,23.6,0,23.6,0,0,2.5-16.9-8.1-19.9-10.5-2.9-17,10-17,10,0,0-2.1-12-14.7-15.6-12.6-3.7-25.8,9.3-25.8,9.3,0,0-3.5-29.3-21.1-28.2-17.6,1-15.2,16.6-15.2,16.6,13.3,2.9,17,19.1,17,19.1,0,0-3.5-5.2-16.3-6.2-12.8-1.1-19.8,8.2-19.8,8.2-1.1-11.8,10.8-19.4,10.8-19.4,0,0-11.7-40.7-30.3-25.4-18.6,15.3,2.2,39.7,2.2,39.7l-8.7-5.7c-17.5-16.7-9.9-42.5,12.3-44.8,22.3-2.3,25.2,12.9,25.2,12.9,0,0,7.1-10.5,26.4-7.5,19.4,3.1,20,22.6,20,22.6,0,0,10.5-8.2,24.9-6.4,14.4,1.8,12.4,14.9,12.4,14.9,0,0,14.3-11.3,26,2.2h0Z"/>
    <path class="st0" d="M-52.7,95.2s-10.7-3-14.8,3c-4.1,6.1-2.7,14.3,1.6,20.9-10.9-7.1-7.8-22.3-7.8-22.3,0,0,1.5-6,7.9-7.5,6.4-1.5,13.2,5.8,13.2,5.8h0Z"/>
  </g>
  <rect class="st0" y="126.7" width="991.2" height="596.3"/>
</svg>