<?xml version="1.0" encoding="UTF-8"?>
<svg id="Layer_1" xmlns="http://www.w3.org/2000/svg" version="1.1" viewBox="0 0 294.8 368.5">
  <!-- Generator: Adobe Illustrator 30.1.0, SVG Export Plug-In . SVG Version: 2.1.1 Build 136)  -->
  <defs>
    <style>
      .st0 {
        fill: #1d1d1b;
      }

      .st1 {
        fill: #004f9c;
      }

      .st2 {
        fill: #fff;
      }

      .st3 {
        fill: #2c54f4;
      }
    </style>
  </defs>
  <path class="st1" d="M286.3,351.5c0,4.7-3.8,8.5-8.5,8.5H17c-4.7,0-8.5-3.8-8.5-8.5V17c0-4.7,3.8-8.5,8.5-8.5h260.8c4.7,0,8.5,3.8,8.5,8.5v334.5Z"/>
  <path class="st3" d="M17,0C7.6,0,0,7.6,0,17v334.5c0,9.4,7.6,17,17,17h260.8c9.4,0,17-7.6,17-17V17c0-9.4-7.6-17-17-17H17Z"/>
  <path class="st2" d="M17,4.3c-7,0-12.7,5.7-12.7,12.7v334.5c0,7,5.7,12.7,12.7,12.7h260.8c7,0,12.7-5.7,12.7-12.7V17c0-7-5.7-12.7-12.7-12.7H17Z"/>
  <path class="st3" d="M286.3,351.5c0,4.7-3.8,8.5-8.5,8.5H17c-4.7,0-8.5-3.8-8.5-8.5V17c0-4.7,3.8-8.5,8.5-8.5h260.8c4.7,0,8.5,3.8,8.5,8.5v334.5Z"/>
  <path class="st2" d="M240.8,235.3c0,4.5-3.6,8.1-8.1,8.1H59.3c-4.5,0-8.1-3.6-8.1-8.1V61.9c0-4.5,3.6-8.1,8.1-8.1h173.5c4.4,0,8.1,3.6,8.1,8.1v173.5h-.1q0-.1,0,0Z"/>
  <g>
    <path class="st0" d="M63.7,223.8c-.4.9-1.9,1-3.3.4h0c-1.5-.6-2.3-1.9-1.9-2.7l66.9-124c.4-.9,1.9-1,3.3-.4h0c1.4.6,2.3,1.9,1.9,2.7l-67,124h.1Z"/>
    <path class="st0" d="M125.8,141.9c-.2.9-1.6,1.4-3.2,1.1h0c-1.6-.3-2.6-1.3-2.4-2.3l14.2-42.9c.2-.9,1.6-1.4,3.2-1.1h0c1.6.3,2.7,1.3,2.5,2.3l-14.2,42.9h-.1Z"/>
    <path class="st0" d="M148.5,142.5c0,.9-1.3,1.7-2.9,1.7h0c-1.6,0-2.9-.8-2.9-1.7v-44c0-.9,1.3-1.7,2.9-1.7h0c1.6,0,2.9.8,2.9,1.7v44Z"/>
    <path class="st0" d="M170.7,140.7c.2.9-.9,1.9-2.4,2.3h0c-1.6.3-3-.1-3.2-1.1l-14.2-42.9c-.2-.9.9-1.9,2.4-2.3h0c1.6-.3,3,.2,3.2,1.1l14.2,42.9h0Z"/>
    <path class="st0" d="M232,221.8c.4.9-.5,2.1-1.9,2.7h0c-1.5.6-3,.5-3.3-.4l-67.1-124.3c-.4-.9.5-2.1,1.9-2.7h0c1.5-.6,2.9-.5,3.3.4l67.1,124.3h0Z"/>
    <path class="st0" d="M126.8,91.8c-.9,0-1.7-2.3-1.7-5h0c0-2.8.8-5,1.7-5h36.4c.9,0,1.7,2.3,1.7,5h0c0,2.8-.8,5-1.7,5h-36.4Z"/>
    <path class="st0" d="M194.9,185c-.3-7.9-2.6-8.9-5.4-9.2-.2,0-6.8-23.2-6.8-23.5-2.6-5.4-5.4-6.3-8.9-6.3h-56.8c-3.5,0-6.3.9-8.9,6.3,0,.2-6.6,23.5-6.8,23.5-2.7.3-5,1.3-5.4,9.2v19.2c0,4.3-.5,7.8,3.8,7.9v9.3c.2,4.4,3.4,4.1,7.7,4.1s7.8.2,7.8-4.1v-9.3h60.3v9.3c0,4.3,3.5,4.1,7.8,4.1s7.5.3,7.7-4.1v-9.3c4.3,0,3.7-3.6,3.7-7.9v-19.2h.2Z"/>
    <path class="st2" d="M108.8,199.9c-4.9,0-8.8-4-8.8-8.8s4-8.9,8.8-8.9,8.8,4,8.8,8.9-3.9,8.8-8.8,8.8Z"/>
    <path class="st2" d="M145.5,173.5h-35l4.3-17.2c1.4-3.3,2.8-3.4,5-3.7h51.4c2.2.3,3.6.4,5,3.7l4.3,17.2h-35Z"/>
    <path class="st2" d="M182.1,199.9c-4.9,0-8.8-4-8.8-8.8s4-8.9,8.8-8.9,8.9,4,8.9,8.9-4,8.8-8.9,8.8Z"/>
  </g>
  <g>
    <path class="st2" d="M49.6,295.4v-25.8h6.8l5.4,9.5c1.5,2.7,3,5.9,4.2,8.8h0c-.3-3.4-.5-6.9-.5-10.8v-7.5h5.4v25.8h-6.1l-5.5-10c-1.5-2.8-3.3-6.1-4.5-9.1h-.2c.2,3.4.3,7.1.3,11.3v7.8h-5.4,0Z"/>
    <path class="st2" d="M82,288.7l-1.8,6.6h-6l7.9-25.8h7.6l8,25.8h-6.3l-2-6.6s-7.4,0-7.4,0ZM88.5,284.4l-1.6-5.5c-.4-1.5-.9-3.5-1.3-5h0c-.3,1.5-.8,3.5-1.1,5l-1.6,5.5h5.7Z"/>
    <path class="st2" d="M102.7,274.5h-7v-4.9h19.8v4.9h-7v20.9h-5.8v-20.9Z"/>
    <path class="st2" d="M124.5,269.6v25.8h-5.8v-25.8h5.8Z"/>
    <path class="st2" d="M140.5,295.8c-7.6,0-12.1-5.8-12.1-13.1s5-13.5,12.6-13.5,12.2,5.9,12.2,13.1-5.1,13.6-12.6,13.6h-.1q0-.1,0-.1ZM140.8,291.1c3.9,0,6.2-3.7,6.2-8.8s-2.2-8.6-6.2-8.6-6.3,3.9-6.3,8.7,2.3,8.7,6.2,8.7h.1Z"/>
    <path class="st2" d="M157,295.4v-25.8h6.8l5.4,9.5c1.5,2.7,3,5.9,4.2,8.8h0c-.3-3.4-.5-6.9-.5-10.8v-7.5h5.4v25.8h-6.1l-5.5-10c-1.5-2.8-3.3-6.1-4.5-9.1h-.2c.2,3.4.3,7.1.3,11.3v7.8h-5.4.1Z"/>
    <path class="st2" d="M189.4,288.7l-1.8,6.6h-6l7.9-25.8h7.6l8,25.8h-6.3l-2-6.6h-7.4ZM196,284.4l-1.6-5.5c-.4-1.5-.9-3.5-1.3-5h-.1c-.3,1.5-.8,3.5-1.1,5l-1.6,5.5h5.7Z"/>
    <path class="st2" d="M208.6,269.6h5.8v20.9h10.3v4.9h-16.1v-25.8Z"/>
    <path class="st2" d="M243.5,284.4h-9.5v6.1h10.6v4.8h-16.4v-25.8h15.9v4.8h-10.1v5.4h9.5v4.7Z"/>
  </g>
  <g>
    <path class="st2" d="M28.8,324.9l-1.8,6.6h-6l7.9-25.8h7.6l8,25.8h-6.3l-2-6.6h-7.4ZM35.3,320.5l-1.6-5.5c-.4-1.5-.9-3.5-1.3-5h0c-.3,1.5-.8,3.5-1.1,5l-1.6,5.5s5.7,0,5.7,0Z"/>
    <path class="st2" d="M52.4,305.7v14.8c0,4.5,1.7,6.7,4.7,6.7s4.7-2.1,4.7-6.7v-14.8h5.8v14.5c0,8-4,11.8-10.8,11.8s-10.3-3.6-10.3-11.8v-14.4h5.8s0-.1,0-.1Z"/>
    <path class="st2" d="M77.7,310.6h-7v-4.9h19.8v4.9h-7v20.9h-5.8v-20.9Z"/>
    <path class="st2" d="M103.5,331.9c-7.6,0-12.1-5.8-12.1-13.1s5-13.5,12.6-13.5,12.3,5.9,12.3,13.1-5.1,13.6-12.6,13.6h0s-.2-.1-.2-.1ZM103.8,327.3c3.9,0,6.2-3.7,6.2-8.8s-2.2-8.6-6.2-8.6-6.3,3.9-6.3,8.7,2.3,8.7,6.2,8.7h.1Z"/>
    <path class="st2" d="M123.9,331.5l-6.1-25.8h6.2l2,10.6c.6,3.1,1.1,6.4,1.5,9.1h0c.4-2.8,1-5.9,1.7-9.2l2.2-10.5h6.2l2.1,10.9c.6,3,1,5.8,1.4,8.7h0c.4-2.9,1-5.9,1.5-9l2.1-10.5h5.9l-6.7,25.8h-6.3l-2.2-11.1c-.5-2.6-.9-5-1.2-8h0c-.5,2.9-.9,5.4-1.5,8l-2.5,11.1h-6.4s0-.1.1-.1Z"/>
    <path class="st2" d="M157.7,324.9l-1.8,6.6h-6l7.9-25.8h7.6l8,25.8h-6.3l-2-6.6h-7.4ZM164.2,320.5l-1.6-5.5c-.4-1.5-.9-3.5-1.3-5h-.1c-.3,1.5-.8,3.5-1.1,5l-1.6,5.5h5.7Z"/>
    <path class="st2" d="M177,325.5c1.5.8,4,1.6,6.5,1.6s4.1-1.1,4.1-2.8-1.2-2.5-4.3-3.6c-4.3-1.5-7.1-3.9-7.1-7.7s3.7-7.7,9.8-7.7,5.1.6,6.6,1.3l-1.3,4.7c-1-.5-2.9-1.2-5.4-1.2s-3.8,1.2-3.8,2.5,1.4,2.4,4.8,3.7c4.6,1.7,6.7,4.1,6.7,7.7s-3.3,8-10.4,8-5.9-.8-7.3-1.6l1.2-4.8h-.1Z"/>
    <path class="st2" d="M197.5,306.1c1.5-.3,4.6-.6,7.5-.6s5.7.3,7.6,1.5c1.8,1,3.1,2.7,3.1,5.1s-1.3,4.4-4.2,5.5h0c2.9.8,5.1,3.1,5.1,6.4s-1.1,4.2-2.7,5.5c-1.9,1.5-5,2.3-10.1,2.3s-5-.2-6.3-.4v-25.3h0ZM203.2,315.9h1.9c3.1,0,4.7-1.3,4.7-3.2s-1.5-3-4.1-3-2,0-2.5.2v6h0ZM203.2,327.4c.6.1,1.3.1,2.3.1,2.6,0,5-1,5-3.8s-2.3-3.6-5.2-3.6h-2v7.3h-.1Z"/>
    <path class="st2" d="M231.5,331.9c-7.6,0-12.1-5.8-12.1-13.1s5-13.5,12.6-13.5,12.3,5.9,12.3,13.1-5.1,13.6-12.6,13.6h-.2ZM231.8,327.3c3.9,0,6.2-3.7,6.2-8.8s-2.2-8.6-6.2-8.6-6.3,3.9-6.3,8.7,2.3,8.7,6.2,8.7h.1Z"/>
    <path class="st2" d="M248,331.5v-25.8h6.8l5.4,9.5c1.5,2.7,3,5.9,4.2,8.8h0c-.3-3.4-.5-6.9-.5-10.8v-7.5h5.4v25.8h-6.1l-5.5-10c-1.5-2.8-3.3-6.1-4.5-9.1h-.2c.2,3.4.3,7.1.3,11.3v7.8h-5.4.1,0Z"/>
    <path class="st2" d="M277.3,305.1c2.6,0,4.7,2.1,4.7,4.7s-2.1,4.7-4.7,4.7-4.7-2.1-4.7-4.7,2.1-4.7,4.7-4.7h0ZM277.3,306.1c-2,0-3.6,1.7-3.6,3.8s1.6,3.8,3.6,3.8,3.6-1.7,3.6-3.8-1.6-3.8-3.6-3.8h0ZM276.5,312.6h-1.1v-5.2c.4,0,.9-.1,1.7-.1s1.4.1,1.8.4c.3.2.5.6.5,1.1s-.4,1.1-1,1.2h0c.5.1.8.5.8,1.3.1.8.2,1.1.3,1.3h-1.2c-.1-.2-.2-.7-.3-1.4,0-.6-.4-.8-1-.8h-.5v2.2h0ZM276.5,309.6h.5c.7,0,1.2-.2,1.2-.8s-.3-.8-1.1-.8-.5,0-.6,0v1.6h0Z"/>
  </g>
</svg>