<?xml version="1.0" encoding="UTF-8"?>
<svg id="Layer_1" xmlns="http://www.w3.org/2000/svg" version="1.1" viewBox="0 0 884 774.6" preserveAspectRatio="none">
  <!-- Generator: Adobe Illustrator 30.1.0, SVG Export Plug-In . SVG Version: 2.1.1 Build 136)  -->
  <path d="M97.6,460.6c28.6,11.5,38.2,28.6,43.9,21s-93.5-70.6-116.4-40.1c-19.6,26.1,43.9,7.6,72.5,19.1Z"/>
  <path d="M398.6,453.6c8.9-3.8,2.5-15.9-3.2-36.9s9.5-85.1-11.5-70.6c-28.6,19.7,5.7,111.4,14.6,107.5h.1Z"/>
  <path d="M275.1,158.3c26.7,34.4,52.2,203.6,64.9,189.6s-28-203.6-66.2-235.4-54.7-17.8-68.7-38.2c-14-20.4-15.3-25.5-25.5-19.1-24.8,15.5,68.7,68.7,95.4,103.1h.1Z"/>
  <path d="M566.5,365.7c21.6,11.5,14-48.4,16.5-73.8,2.5-25.5,44.7-71.1,30.5-72.5-12.7-1.3-68.7,134.9-47.1,146.4h0Z"/>
  <path d="M696.3,255c21.6-4.5,33-35,51.8-65.6,7.8-12.7,16.8-25.4,28.4-36.2,39.5-36.9,38.2-12.7,71.3-20.4,33.1-7.6-3.8-24.2-6.4-40.7-2.5-16.5,39.1-99.3,12.7-91.6-30.5,8.9-29.3,73.8-94.2,120.9-28,20.3-49.4,49.2-62.2,75-16.8,33.9-18.8,62.3-1.4,58.7h0Z"/>
  <path d="M788,297c9.4,2.8,18.7-23.3,27.1-52.6,3-10.5,5.8-21.3,8.5-31.4,10.2-38.2,41.5-56.7,20.4-68.7-5.4-3.1-22.1,8.9-33,28.2-7,12.4-11.5,27.9-9,44.4,6.4,42-26.7,76.4-14,80.2h0Z"/>
  <path d="M786.7,489.2c-17.2-3.8-66.8,45.8-78.3,34.4-11.4-11.5-7.6-43.9-21-42s-55.4,51.5-63,30.5,168-274.9,124.1-265.3c-43.9,9.5-162.3,273-175.6,278.7-13.4,5.7,13.4-85.9-7.6-82.1-9.5,1.7-17.4,18.2-24.8,36.2-9,21.8-17.3,45.7-26.7,47.8-5.4,1.2-.4-36.6,6.6-88.3,15.1-112.2,39.3-290-14.2-278.2-27.7,6.1-39.1,44.1-42.8,92.8-6.7,89.2,12.7,214.2,6.5,245.1-9.6,47.7-32.5-19.1-47.7-15.3-15.3,3.8,3.8,108.8-5.7,108.8s-11.4-87.8-24.8-89.7c-11.6-1.6-24.5,55.2-32.8,55.8-1.3,0-2.5-1.2-3.5-4.3-2.8-8.4-14.2-66.5-30.8-134.9-12.4-51.1-27.7-108-44.5-154.4-21.7-60.1-46-102.7-69.8-92.5-30.2,12.9,15.3,95.5,47.7,156.5,32.5,61.1,9.6,57.3-70.6,15.3-80.2-42-164.2-7.6-129.8,28.6,31.6,33.3,71.2,19.9,127.8,36.8,5,1.5,10.1,3.2,15.4,5.2,59.6,22.8,88.6,116.5,70.8,122.7-1.6.6-3.5.4-5.9-.5-28.1-11.2-83.6-59.1-120-26.9-.7.6-1.5,1.3-2.2,2-2.3,2.3-3.9,4.7-4.9,7.1-14.1,34.8,109,75.8,151.9,115.1,45.8,42,32.5,63-5.7,70.6-1,.2-2,.4-2.9.7h-.3c-.9.2-1.8.5-2.7.8-.1,0-.2,0-.3,0-.9.3-1.7.6-2.5.9,0,0-.2,0-.3,0-.8.3-1.6.7-2.4,1.1h0c-.2,0-.4.2-.6.3-.4.2-.7.4-1.1.6-.2,0-.5.3-.7.4-.2,0-.4.2-.6.4-.2,0-.4.3-.6.4-.2,0-.4.3-.6.4-.2,0-.4.3-.6.4-.2,0-.4.3-.6.4-.2,0-.4.3-.5.4-.2,0-.4.3-.5.4-.2,0-.4.3-.5.4-.2,0-.3.3-.5.4-.2,0-.3.3-.5.4-.2,0-.3.3-.5.4l-.5.5c-.1,0-.3.3-.4.4-.2.2-.4.4-.5.6-.2.2-.3.4-.5.5-.2.2-.4.5-.6.7-.1,0-.2.3-.3.4-.1.2-.3.4-.4.5s-.2.3-.3.4c-.1.2-.3.4-.4.5-.1.2-.2.3-.3.5-.1.2-.2.4-.3.5,0,.2-.2.3-.3.5-.1.2-.2.4-.3.5,0,.2-.2.3-.3.5l-.3.6c0,.2-.2.3-.2.5s-.2.4-.3.6c0,0-.1.3-.2.4-.1.3-.2.5-.3.8v.3c-.1.3-.2.7-.3,1,0,0,0,.3-.1.4,0,.2-.1.4-.2.7v.4c0,.2,0,.4-.1.6v5.9c0,.3.1.7.2,1v.3c0,.2.1.4.2.7,0,0,0,.3.1.4,0,.2.1.4.2.6,0,0,.1.3.2.4,0,.2.1.4.2.6,0,0,.1.3.2.4,0,.2.2.4.3.6,0,0,.1.3.2.4,0,.2.2.4.3.5,0,0,.1.3.2.4.1.2.3.4.4.6,0,0,.1.2.2.3.2.3.4.5.6.8h0c.2.4.5.7.7.9l.3.3c.2.2.3.4.5.5.1,0,.2.2.4.3l.5.5c.1,0,.3.2.4.3.2,0,.4.3.6.4.1,0,.3.2.4.3.2,0,.4.3.6.4.2,0,.3.2.5.3s.4.3.7.4c.2,0,.3.2.5.3s.5.3.8.4c.2,0,.3.2.5.2.3.2.7.4,1.1.5,0,0,.2,0,.3,0,.4.2.8.4,1.3.5.2,0,.3,0,.5.2.3,0,.6.2.9.3.2,0,.4,0,.6.2.3,0,.6.2.9.3.2,0,.4,0,.7.2.3,0,.6.2.9.2s.5,0,.7.2c.3,0,.6,0,1,.2.2,0,.5,0,.7.2.3,0,.7,0,1,.2.2,0,.5,0,.7,0,.4,0,.8,0,1.2.2h.7c.5,0,1.1,0,1.7.2h.3c.6,0,1.2,0,1.9.2h12.3c.5,0,1.1,0,1.7-.2h.8c.8,0,1.7-.2,2.6-.3,1.9-.2,3.8-.5,5.8-.7.7,0,1.5,0,2.2-.2,1.2,0,2.4-.2,3.6-.3.9,0,1.8,0,2.6-.2,1.1,0,2.1,0,3.2-.2.9,0,1.9,0,2.8,0,1,0,2,0,3,0h17.5c1,0,2.1,0,3.1,0,.9,0,1.8,0,2.7,0,1.1,0,2.1,0,3.2.2.9,0,1.7,0,2.6.2,1.1,0,2.2.2,3.3.2s1.6,0,2.3.2c1.2,0,2.3.2,3.5.3.6,0,1.3,0,1.9.2,1.3,0,2.6.3,3.9.4h.7c21.9,2.5,43,6.8,61.7,11.4.2,0,.3,0,.5,0,1.4.3,2.7.7,4,1,.3,0,.6,0,.9.2,1.2.3,2.4.6,3.6.9.4,0,.7.2,1.1.3,1.1.3,2.2.6,3.2.8.4,0,.8.2,1.2.3,1,.3,2,.5,3,.8.4,0,.9.2,1.3.4.9.3,1.9.5,2.8.8.5,0,.9.3,1.4.4.9.2,1.7.5,2.6.7.5,0,.9.3,1.4.4.9.2,1.8.5,2.6.7.4,0,.8.2,1.2.3,1.2.4,2.5.7,3.7,1,.6.2,1.1.3,1.7.5.2,0,.4,0,.6.2.4,0,.7.2,1,.3.2,0,.4,0,.6.2.3,0,.6.2.9.2s.4,0,.6.2c.3,0,.5,0,.8.2.2,0,.4,0,.6,0,.2,0,.5,0,.7.2.2,0,.4,0,.5,0,.2,0,.5,0,.7,0h.5c.4,0,.7,0,1,.2h6.1q0,0,.1-.2h.1v-.2h0v-.4h0v-.4h0v-1.4s0-.2-.1-.3v-.2c0,0,0-.2-.1-.3h0c-.2-.5-.4-.9-.7-1.4h0c0-.2-.2-.4-.2-.5,0,0,0,0-.1-.2,0,0-.2-.3-.3-.4,0,0,0,0-.1-.2,0-.2-.2-.3-.3-.5v-.2c-.6-1-1.3-2.2-2.1-3.4,0,0,0,0-.1-.2l-.3-.6c0,0-.1-.2-.2-.3,0-.2-.2-.3-.3-.5,0,0-.2-.3-.2-.4s-.2-.3-.3-.5c0,0-.2-.3-.2-.4,0-.2-.2-.3-.3-.5,0,0-.2-.3-.2-.4-.1-.3-.3-.5-.4-.8,0-.2-.2-.3-.3-.5,0-.2-.2-.3-.3-.5,0-.2-.2-.3-.3-.5,0,0-.2-.3-.2-.5s-.2-.3-.2-.5-.2-.3-.2-.5-.2-.3-.2-.5-.1-.3-.2-.5c0-.2-.2-.3-.2-.5s-.1-.3-.2-.5c0-.2-.2-.3-.2-.5s-.1-.3-.2-.5c-.1-.3-.3-.6-.4-.9,0-.2-.1-.4-.2-.6,0-.2-.1-.3-.2-.5,0-.2-.1-.3-.2-.5,0-.2-.1-.4-.2-.5,0-.2-.1-.3-.2-.5,0-.2-.1-.4-.2-.5,0-.2-.1-.3-.2-.5,0-.2-.1-.4-.2-.5,0-.2,0-.4-.1-.5,0-.2,0-.4-.1-.5,0-.2,0-.4-.1-.6,0-.2,0-.3-.1-.5,0-.3-.1-.6-.2-.9v-.5c0-.2,0-.5-.1-.7v-5.9c0-.3,0-.5.1-.8v-.5c0-.3.1-.5.2-.8,0-.2,0-.3.1-.5,0-.3.1-.5.2-.8,0-.2,0-.3.1-.5,0-.3.2-.6.3-.8,0-.2,0-.3.2-.5.2-.4.3-.9.5-1.3,11.4-26.7,30.5,30.5,43.9,17.2,13.4-13.4-22.9-105,21-106.9,43.9-1.9-3.8,118.4,28.6,120.3h5.9c.8,0,1.6,0,2.4-.2h.6c.6,0,1.3-.2,1.9-.3h.5c.7,0,1.4-.3,2.1-.4.2,0,.4,0,.7-.2.3,0,.5,0,.8-.2.2,0,.4,0,.6-.2.3,0,.7-.2,1-.3.4,0,.8-.2,1.2-.4.3,0,.6-.2.9-.3.5-.2.9-.3,1.4-.5.4-.2.8-.3,1.2-.5s.9-.4,1.3-.6c.3,0,.6-.3.9-.4.3-.2.7-.3,1-.5s.6-.3.9-.5c.3-.2.6-.3,1-.5.3-.2.6-.3.9-.5.3-.2.6-.4.9-.5.3-.2.6-.3.8-.5.4-.2.7-.4,1.1-.6.5-.3,1.1-.6,1.6-1,.2,0,.4-.3.6-.4.4-.2.8-.5,1.2-.8,0,0,.3-.2.4-.3,2-1.3,4-2.5,6-3.8h0c.5-.3,1.1-.6,1.6-1,.2,0,.3-.2.5-.3.4-.2.8-.5,1.3-.7.2,0,.4-.2.6-.3.4-.2.8-.4,1.2-.7.2,0,.4-.2.6-.3.5-.2,1-.5,1.5-.7,0,0,.2,0,.3,0,.6-.3,1.2-.5,1.9-.8,0,0,.3,0,.4-.2.5-.2,1-.4,1.5-.5.2,0,.4,0,.6-.2.4,0,.9-.3,1.3-.4.2,0,.5,0,.7-.2.5,0,.9-.2,1.4-.3.2,0,.4,0,.6,0,.6,0,1.2-.2,1.9-.3h.2c.7,0,1.4-.2,2.2-.2h5.5c.6,0,1.1,0,1.7.2h.8c.8,0,1.7.2,2.6.4,30.5,5.7,51.5,11.4,53.4-24.8,1.9-36.3-66.8-64.9-36.3-89.7,6.9-5.6,18.5-15.6,32.1-27.7,33.6-30,79.4-73.1,96.4-95.3,6.3-8.2,8.7-13.6,5.1-14.4l-1.6.5Z"/>
  <path d="M861.8,252.5c-4.1,7.2-8.5,13.7-13.2,19.7-20.4,25.8-46.5,41.9-73.3,60.5-33.1,22.9-62.4,82.7-59.8,96.7,2.5,14,10.2-8.9,44.5-59.8,10.6-15.7,24-26.8,37.9-35.4,31.3-19.3,65.4-25.6,76.6-40.9,17.8-24.2,8.9-78.9-12.7-40.7h0Z"/>
  <path d="M376.6,555.8c30.7-33,72.3-80.1,87.2-103.8,5.5-8.7,7.4-14.3,3.7-14.8l-1.5.6c-17.5-2.2-62.3,51.8-74.8,41.5-12.4-10.4-11.6-43-24.8-39.9-13.2,3.1-50.4,56.4-59.9,36.2-9.5-20.2,141.8-289.3,99-275.6-42.8,13.5-136.3,286.9-149,293.8-12.8,6.9,5.4-86.8-15.2-81-9.3,2.6-15.6,19.7-21.3,38.3-6.9,22.5-13,47.1-22.2,50.1-5.3,1.7-3.8-36.4-1.6-88.5,4.6-113.1,12.3-292.4-39.9-275.7-27,8.6-34.8,47.5-34,96.4,1.6,89.4,32.5,212.1,29.2,243.4-5.1,48.4-34.1-16-48.9-10.8-14.9,5.2,13.9,108,4.4,108.9-9.5.9-19.5-86.4-33-87-11.7-.5-19.3,57.2-27.5,58.6-1.3.2-2.6-1-3.9-4-3.5-8-20-63.9-42.6-129.7v331.3s0,0,0,0c.3,0,.7,0,1,0,.5,0,1,0,1.5-.1.3,0,.6,0,1,0,.5,0,1.1-.1,1.7-.4.3,0,.6,0,.8,0,.8,0,1.7-.4,2.6-.5,1.9-.4,3.7-.8,5.7-1.2.7,0,1.5-.2,2.2-.4,1.2-.2,2.4-.4,3.6-.6.9,0,1.8-.3,2.6-.4,1.1-.1,2.1-.3,3.2-.5.9,0,1.9-.2,2.8-.4,1,0,2-.2,3-.4,1,0,1.9-.2,2.9-.3,1,0,2-.2,2.9-.3,1,0,2-.2,3-.3,1,0,1.9-.2,2.9-.3,1,0,2-.2,3-.3.9,0,1.9-.2,2.8-.3,1,0,2.1-.2,3.1-.2.9,0,1.8-.2,2.7-.2,1.1-.1,2.1,0,3.2,0,.9,0,1.7,0,2.6,0,1.1-.1,2.2,0,3.3-.1.8,0,1.6,0,2.3,0,1.2,0,2.3,0,3.5,0,.6,0,1.3,0,1.9,0,1.3,0,2.6,0,3.9,0,.2,0,.5,0,.7,0,22,.5,43.4,2.8,62.5,5.6.2,0,.3,0,.5,0,1.4.2,2.8.4,4.1.6.3,0,.6,0,.9.1,1.2.2,2.4.4,3.7.6.4,0,.7.1,1.1.2,1.1.2,2.2.4,3.3.5.4,0,.8.1,1.2.2,1,.2,2,.3,3.1.5.4,0,.9.1,1.3.3.9.2,1.9.3,2.9.5.5,0,.9.2,1.4.3.9.1,1.7.3,2.7.5.5,0,.9.2,1.4.3.9.1,1.8.3,2.7.5.4,0,.8.1,1.2.2,1.2.3,2.6.5,3.8.7.6.1,1.1.2,1.7.3.2,0,.4,0,.6.1.4,0,.7.1,1,.2.2,0,.4,0,.6.1.3,0,.6.1.9.1.2,0,.4,0,.6.1.3,0,.5,0,.8.1.2,0,.4,0,.6,0,.2,0,.5,0,.7.1.2,0,.4,0,.5,0,.2,0,.5,0,.7,0,.2,0,.3,0,.5,0,.4,0,.7,0,1,.1,0,0,.3,0,.4,0,.2,0,.4,0,.6,0,0,0,.3,0,.4,0,.2,0,.3,0,.5,0,0,0,.3,0,.4,0,0,0,.3,0,.4,0,0,0,.2,0,.4,0,0,0,.2,0,.3,0,0,0,.2,0,.3,0,0,0,.2,0,.3,0,0,0,.2,0,.3,0,0,0,.2,0,.3,0,0,0,.3,0,.4,0,0,0,.2,0,.3,0,0,0,0,0,.2,0,0,0,0,0,.2,0,0,0,0,0,.2,0h0s0,0,0-.1h0q0-.1,0-.2h0q0,0,0-.2h0c0,0,0-.2,0-.3,0,0,0-.3,0-.4h0c0,0,0-.3,0-.3,0,0,0,0,0-.2v-.2s0,0,0-.2c0,0,0-.2,0-.3,0,0,0,0,0-.2,0,0,0-.2-.1-.3,0,0,0,0,0-.2,0,0,0-.2-.1-.3h0c-.2-.5-.5-.9-.8-1.3h0c0-.2-.2-.4-.2-.5,0,0,0,0-.1-.2,0,0-.2-.3-.3-.4,0,0,0,0-.1-.2,0-.2-.2-.3-.3-.5,0,0,0,0,0-.2-.7-.9-1.5-2.1-2.4-3.2,0,0,0,0-.1-.2-.1-.2-.2-.4-.4-.6,0,0-.1-.2-.2-.3,0-.2-.2-.3-.3-.5,0,0-.2-.3-.2-.4,0,0-.2-.3-.3-.5,0,0-.2-.3-.2-.4,0-.2-.2-.3-.3-.5,0,0-.2-.3-.2-.4-.1-.3-.3-.5-.5-.8,0-.2-.2-.3-.3-.5,0-.2-.2-.3-.3-.5,0-.2-.2-.3-.3-.5,0,0-.2-.3-.2-.5,0-.2-.2-.3-.2-.5,0-.2-.2-.3-.2-.5,0-.2-.2-.3-.2-.5,0-.2-.1-.3-.2-.5,0-.2-.2-.3-.2-.5,0-.2-.1-.3-.2-.5,0-.2-.2-.3-.2-.5s-.1-.3-.2-.5c-.1-.3-.4-.6-.5-.9,0-.2-.1-.4-.3-.6,0-.2-.1-.3-.2-.5,0-.2-.1-.3-.2-.5,0-.2-.1-.4-.2-.5,0-.2-.1-.3-.2-.5,0-.2-.1-.4-.2-.5,0-.2-.1-.3-.2-.5,0-.2-.1-.4-.2-.5,0-.2,0-.4-.1-.5,0-.2,0-.4-.1-.5,0-.2,0-.4-.2-.6,0-.2,0-.3-.1-.5,0-.3-.2-.6-.3-.9,0-.2,0-.4,0-.5,0-.2,0-.5-.2-.7,0-.2,0-.3,0-.5,0-.2,0-.4,0-.6,0-.2,0-.3,0-.5,0-.2,0-.4,0-.6,0-.2,0-.5,0-.7,0-.2,0-.3,0-.5s0-.5,0-.7c0-.2,0-.3,0-.5,0-.3,0-.5,0-.8,0-.2,0-.3,0-.5,0-.3,0-.5,0-.8,0-.2,0-.3,0-.5,0-.3,0-.5.1-.8,0-.2,0-.3,0-.5,0-.3,0-.5.1-.8,0-.2,0-.3,0-.5,0-.3.1-.6.2-.8,0-.2,0-.3.2-.5.2-.4.2-.9.4-1.3,8.9-27.6,33.2,27.5,45.3,13.1,12.1-14.6-32.5-102.4,11-108.4s7.2,118.2,39.6,117.1c.9,0,1.8-.2,2.7-.2.2,0,.5,0,.7,0,.8,0,1.5-.1,2.2-.2,0,0,.2,0,.3,0,.8,0,1.6-.2,2.4-.4.2,0,.4,0,.6,0,.6,0,1.3-.3,1.9-.5.2,0,.3,0,.5,0,.7-.2,1.4-.4,2.1-.6.2,0,.4-.1.7-.3.3,0,.5-.1.8-.3.2,0,.4-.1.6-.3.3,0,.7-.3,1-.4.4-.1.8-.3,1.2-.5.3-.1.6-.3.9-.4.5-.2.9-.4,1.3-.6.4-.2.8-.4,1.1-.6.4-.2.9-.5,1.2-.7.3-.1.6-.4.9-.5.3-.2.7-.4.9-.6.3-.2.6-.4.8-.6s.6-.4.9-.6c.3-.2.6-.4.8-.6.3-.2.6-.5.8-.6.3-.2.6-.4.8-.6.4-.2.7-.5,1-.7.5-.3,1-.7,1.5-1.1.2-.1.4-.3.6-.5.4-.2.8-.6,1.1-.9,0,0,.3-.2.4-.3,1.9-1.5,3.8-2.9,5.6-4.3.5-.3,1-.7,1.5-1.1.2,0,.3-.2.5-.3.4-.2.8-.6,1.2-.8.2-.1.4-.2.6-.4.4-.2.8-.5,1.1-.8.2,0,.4-.2.6-.4.5-.2.9-.6,1.4-.8,0,0,.2,0,.3-.1.6-.4,1.1-.6,1.8-1,0,0,.3-.1.4-.2.5-.2,1-.5,1.4-.6.2,0,.4-.1.6-.3.4-.1.9-.4,1.3-.5.2,0,.5-.1.7-.3.5-.1.9-.3,1.4-.4.2,0,.4,0,.6-.2.6-.2,1.2-.3,1.9-.5,0,0,0,0,.2,0,.7,0,1.4-.3,2.2-.4.2,0,.4,0,.6,0,.5,0,1.1-.1,1.6-.1.3,0,.5,0,.8,0,.5,0,1,0,1.6-.1.3,0,.6,0,.9,0,.6,0,1.1-.1,1.7,0,.3,0,.5,0,.8,0,.8,0,1.7,0,2.6.2,30.9,2.9,52.3,6.6,50.9-29.6-1.5-36.3-72.5-58.4-44.4-86,6.4-6.2,17-17.2,29.4-30.6Z"/>
  <path d="M884,182.6c-6.6-22.7-16.8-35-32.3-30.1-27,8.6-34.8,47.5-34,96.4,1.6,89.4,32.5,212.1,29.2,243.4-5.1,48.4-34.1-16-48.9-10.8-14.9,5.2,13.9,108,4.4,108.9-9.5.9-19.5-86.4-33-87-11.7-.5-19.3,57.2-27.5,58.6-1.3.2-2.6-1-3.9-4-3.6-8.1-20.3-64.9-43.2-131.5-17.1-49.7-37.6-105-58.6-149.6-27.2-57.8-55.3-98-78.1-85.6-28.9,15.6,24.1,93.7,62,151.4,38,57.8,14.9,56.2-68.9,21.8s-164.2,7.6-126.6,40.5c34.5,30.2,72.7,13.2,130.7,24.8,5.1,1,10.4,2.3,15.8,3.8,61.5,17.2,99,107.8,81.9,115.6-1.5.7-3.4.7-5.9,0-29-8.6-88.7-51.1-122-15.7-.6.7-1.4,1.4-2,2.2-2.1,2.5-3.4,5-4.2,7.5-10.8,36,115.5,65.4,161.9,100.5,49.5,37.6,38.2,59.7.9,70.8-1,.3-2,.6-2.8,1,0,0-.2,0-.3,0-.9.3-1.7.7-2.6,1,0,0-.2,0-.3.1-.9.4-1.6.8-2.4,1.1,0,0-.2,0-.3.1-.8.4-1.5.8-2.3,1.3-.2.1-.4.2-.6.4-.4.2-.7.5-1,.7-.2.1-.5.3-.7.5-.2.1-.4.2-.6.5-.2.1-.4.3-.6.5-.2.1-.4.3-.6.5-.2.1-.4.3-.6.5-.2.1-.4.3-.6.5-.2.1-.4.3-.5.4-.2.1-.4.3-.5.4-.2.1-.4.3-.5.4-.2.1-.3.3-.5.4s-.3.3-.5.4c-.2.1-.3.3-.5.4-.2.2-.3.3-.5.5,0,.1-.3.3-.4.4-.2.2-.4.4-.4.6-.2.2-.3.4-.5.5-.2.2-.4.5-.5.8,0,.1-.2.3-.3.4,0,.2-.3.4-.4.5s-.2.3-.3.4c0,.2-.3.4-.4.5,0,.2-.2.3-.3.5,0,.2-.2.4-.3.5,0,.2-.2.3-.3.5s-.2.4-.3.5c0,.2-.2.3-.3.5,0,.2-.2.4-.2.6,0,.2-.2.3-.2.5,0,.2-.2.4-.2.6,0,0,0,.3-.2.4,0,.3-.2.5-.2.8,0,0,0,.2,0,.3,0,.3-.1.7-.2,1,0,0,0,.3,0,.4,0,.2,0,.4-.1.7,0,0,0,.3,0,.4,0,.2,0,.4,0,.6,0,.2,0,.3,0,.5,0,.2,0,.4,0,.6,0,.2,0,.3,0,.5s0,.4,0,.6c0,.2,0,.3,0,.5,0,.2,0,.4,0,.6,0,0,0,.3,0,.4,0,.2,0,.4,0,.7,0,0,0,.3,0,.4,0,.3,0,.6,0,.9,0,0,0,0,0,.2,0,.3.2.7.3,1,0,0,0,.2,0,.3,0,.2.1.4.3.7,0,0,0,.3.1.4,0,.2.1.4.3.6,0,0,.1.3.2.4,0,.2.1.4.3.6,0,0,.1.3.2.4,0,.2.2.4.4.6,0,0,.1.3.2.4,0,.2.2.4.3.5,0,0,.1.3.2.4.1.2.3.4.5.6,0,0,.1.2.2.3.2.3.4.5.7.7h0c.2.4.6.7.8.8,0,0,.2.2.3.3.2.2.3.4.5.5.1,0,.2.2.4.3.2.2.3.3.5.5.1,0,.3.2.4.3.2,0,.4.3.6.3.1,0,.3.2.4.3.2,0,.4.3.6.3.2,0,.3.2.5.3.2,0,.4.3.7.3.2,0,.3.2.5.3.2,0,.5.3.8.3.2,0,.3.2.5.2.3.2.7.3,1.1.4,0,0,.2,0,.3,0,.4.2.8.3,1.3.4.2,0,.3,0,.5.2.3,0,.6.1.9.2.2,0,.4,0,.6.1.3,0,.6.1.9.2.2,0,.4,0,.7.1.3,0,.6.1.9.1.2,0,.5,0,.7.1.3,0,.6,0,1,.1.2,0,.5,0,.7.1.3,0,.7,0,1,.1.2,0,.5,0,.7,0,.4,0,.8,0,1.2,0,.2,0,.5,0,.7,0,.5,0,1.1,0,1.7,0,0,0,.2,0,.3,0,.6,0,1.2,0,1.9,0,.2,0,.5,0,.7,0,.4,0,.9,0,1.3-.1h.9c.4-.1.9-.2,1.3-.2.3,0,.6,0,.9,0,.4,0,.9,0,1.3-.1.3,0,.6,0,1,0,.4,0,.9,0,1.4-.1.3,0,.7,0,1,0,.5,0,1,0,1.5-.1.3,0,.6,0,1,0,.5,0,1.1-.1,1.7-.4.3,0,.6,0,.8,0,.8,0,1.7-.4,2.6-.5,1.9-.4,3.7-.8,5.7-1.2.7,0,1.5-.2,2.2-.4,1.2-.2,2.4-.4,3.6-.6.9,0,1.8-.3,2.6-.4,1.1-.1,2.1-.3,3.2-.5.9,0,1.9-.2,2.8-.4,1,0,2-.2,3-.4,1,0,1.9-.2,2.9-.3,1,0,2-.2,2.9-.3,1,0,2-.2,3-.3,1,0,1.9-.2,2.9-.3,1,0,2-.2,3-.3.9,0,1.9-.2,2.8-.3,1,0,2.1-.2,3.1-.2.9,0,1.8-.2,2.7-.2,1.1-.1,2.1,0,3.2,0,.9,0,1.7,0,2.6,0,1.1-.1,2.2,0,3.3-.1.8,0,1.6,0,2.3,0,1.2,0,2.3,0,3.5,0,.6,0,1.3,0,1.9,0,1.3,0,2.6,0,3.9,0,.2,0,.5,0,.7,0,22,.5,43.4,2.8,62.5,5.6.2,0,.3,0,.5,0,1.4.2,2.8.4,4.1.6.3,0,.6,0,.9.1,1.2.2,2.4.4,3.7.6.4,0,.7.1,1.1.2,1.1.2,2.2.4,3.3.5.4,0,.8.1,1.2.2,1,.2,2,.3,3.1.5.4,0,.9.1,1.3.3.9.2,1.9.3,2.9.5.5,0,.9.2,1.4.3.9.1,1.7.3,2.7.5.5,0,.9.2,1.4.3.9.1,1.8.3,2.7.5.4,0,.8.1,1.2.2.5.1,1.1.2,1.7.3,1.5,2.8,3.1,5.6,4.9,8.3,3,4.6,7.2,8.4,12,11V182.6Z"/>
</svg>