<?xml version="1.0" encoding="UTF-8"?>
<svg id="Layer_1" xmlns="http://www.w3.org/2000/svg" version="1.1" viewBox="0 0 738.5 1069" preserveAspectRatio="none">
  <!-- Generator: Adobe Illustrator 30.1.0, SVG Export Plug-In . SVG Version: 2.1.1 Build 136)  -->
  <path d="M201.4,258.8c13.6,18.2,42.6,13.2,54.6-2.8,9-11-1-24-11-32-10-7-24-12-35-5-12,7-16,24-10.1,36.8.5,1,.9,2.1,1.5,3Z"/>
  <path d="M503.7,67.8c.4,15.3,13.2,23.9,25.3,20.2,11.7-3.8,19.2-15.6,17.7-30.5-2-16-18-22.4-28.6-16.8-9,4.6-16.4,14.2-14.4,26.9h0Z"/>
  <path d="M508.3,123.9c3.7,13.1,18.7,21.1,31.7,16.1,10-5,14-18,10-28s-14-18-25-17c-14,1-20,17-16.7,28.8t0,0Z"/>
  <path d="M566.1,968.4c.9-5.4-2.1-9.4-4.1-12.4-4-5-11-3-13,1-17,27-32,55-31,87,1,12,12,22,23,21,28-4,16-45,20-65.5.7-11.3,1.9-21.7,5.3-29.1,0-.7,0-1.4,0-2Z"/>
  <path d="M381.6,137c13.5-5.1,22.4-20,22.4-34,0-35,1-72-20-103-4-6-15-4-19,1-10,12-9,26-8,40,1.5,12,3.5,23.7,4.4,35.4s.8,23-2,34.3c-1.5,11.8,8.7,23.7,22.1,26.4Z"/>
  <path d="M647.1,152.9c-9.1-9.9-30.1-15.9-35.1-1.9-4,14-2.5,28-.2,42.1,2.2,31.9,19.2,63.9,9.2,96.9-3,11-18,12-25,8-29-19-21-59-26.8-88.3-1.2-10.7-2.8-21.4-5.3-31.9-2.7-11.2-7.4-21.2-17.9-26.7-11-6-25.9-1-27.9,12-1,15,10.3,29,4.5,43.9-1.6,8.9-13.5,11.8-22.4,5.9-10.3-8.4-15.3-19.6-18.2-31.6-2.3-12-3.1-24.8-6.2-36.5-1.6-10.1-3-20.3-4.7-30.6s-3.6-20.7-6.1-31.2c-2-10-21-20-24-8-4,11.5-5.4,23.1-5.2,34.7-.8,7.3,1.2,13.3,1.2,20.3.8,9.2,3.9,19.3,7.5,29.6,3.7,10.3,7.9,20.9,11.5,31.1,7,17.3,15,50.3-6,51.3-14.5,0-23.2-10-29.1-23.2s-8.8-29.6-11.8-42.4c-3.1-18.4-22.1-33.4-40.1-24.4-18,11-18,34-18,52,1,24.5,9,49,14.6,73.4s5,24.3,5.6,36.3c-12.2,60.3-11.2,156.3-70.2,175.3-49,15-62-57-50.9-100.5.9-9.6,1.8-19.2,1.9-28.6.5-28.1-5-53.9-31-69.9-40.7,38.7-36.9,96.4-22.1,151.1,3.7,13.7,8.1,27.1,12.6,40.1,5.6,18.8,18.6,37.8,17.6,58.8-1,6-6,13-13,9-7.3-5.2-13.9-10.9-19.7-17.2-29.1-31.3-40.1-75-39.3-115.8,0-71,37-159-10-216-4-5-15,23-15,37-2,54,35,139-23,171-4,2-6-7-6-12,0-28,15-53,11-82-1-7-6-16-15-14-6,2-13,5-14,11-10,52-27,98-27.8,149.1.8,10,2.9,19.5,5.8,28.9,13.1,43,31.1,85,34.1,131,1.3,22,.6,43.8-.7,65.6s-1.3,21.8-2,32.7c-1.4,26.7-4.4,52.7.6,79.7,10,53-10,100-28.6,146.6-3.2,9-6.2,18.1-8.7,27.2-5.1,18.3-8.3,37.1-7.6,57.1,0,9,5,17,13,21,12,6,27-5.8,26-18.7-4-55.3,20-105.3,35-158.3,3-14,5-28,4-42-3-57,8-110,18.1-164.7.9-10.9,1.1-21.8.7-32.6-1-27.1-6-53.9-14.1-80.4-2.7-8.8-5.7-17.6-9.1-26.4-8.6-29.8-39.6-61.8-15.6-92.8,31,24,51,61,64.4,97.1,4.2,11.7,7.5,23.3,10,35.1,2.4,11.7,4,23.5,4.9,35.5.9,11.9,1,24,.3,36-2.6,37.3-9.6,74.3-24.6,108.3,44,1,42-63,53-94,5-14,24-22,34-9,6,8,4,19,1,28-12,42-49,74-48,119,1,10,9,29,17,21,29.3-32,45.8-72.4,58-114.3,3-10.5,5.8-21,8.5-31.6,13.6-39.1,3.6-85.1,23.6-118.1,12-18,47,11,54,36,11,41,7,87-20,120-9,9.5-19.2,23-23.5,36.1s-2.5,25.9,12.5,33.9c40,21,57-33,85-54,6-4,13-3,20-3,8,1,13,10,14,19,1.5,14-4.2,30-6.4,45.2-2.1,15.2-.6,29.3,15.4,38.8,7,4,16.8,8,25.9,9s17.6-1,22.1-9c11-21-5-43-14-64-2-6-3-12-3-18-.2-11.1-.3-22.2,0-33.4.2-13.1.7-26.1,1.6-39.1.9-13.1,2.2-26.1,3.7-39.2,14.7-66.3,7.7-145.3,51.7-198.3,3-4,11,10,9,19-13,67-32,128-34.6,194.4-.2,12.2,0,24.1.8,35.9,3.6,59,16.4,117.7,35.9,174.7,1,5-2,9-.8,14-.5,9.2-1.3,18.5-.3,28,1,7,9,17,14,12,15-13.5,17.5-32.2,16.6-52.1s-1.8-20.2-3.4-30.1c-.3-11.7-9.3-25.4-1.3-35.5,7-10.1,21-1.2,27,6.8,12,17,13,38,9.2,57.5-1.1,9-2.4,18-3.2,27.1s-1,18.2,0,27.4c1,11,17,14,23,7,6.5-8.7,11.4-17.8,15.1-27.2,3.7-9.4,6.2-19.2,7.8-29.2,6.1-46.4-15.9-86.3-39.8-125.8-6-9.9-12.1-19.7-17.9-29.7-7-10-12.3-20.9-15.8-32.4-10.4-38.7-5.4-79.7,8.6-116.7,27-71,64-137,74-213,7-50-7-98-11.6-146.7-2.3-13.2-6.1-26-12.8-37.7-.5-.6-.9-1.1-1.5-1.7ZM482.8,460.7c1,10.2-5,20.9-13.4,27.3-8.4,6.3-19.2,8.1-28.3,1.9-11.1-8.8-16.3-21.3-17.8-34.6s.8-27.2,4.8-39.2c5.5-15.5,9-37.2,14.2-55.1s12.2-31.9,24.8-31.9c54,9,19,76,17.5,111.8-1.2,11.8-1.7,19.9-1.7,19.9Z"/>
  <path d="M508.9,603.6c-1.9,11.7-5.2,23.4-7.2,34.9s-2.7,23,.3,34.5c1-11,2.2-22,3.6-33s2.8-22.2,4.1-33.4c.3-2,0-3.2-.8-2.9Z"/>
  <path d="M500,694.7c-1.3,9.3-1.4,18.6-.7,27.8s2.3,18.3,4.5,27.3c13.1,40.3,28.1,78.3,34.1,120.3,6-37-16-71-25.8-104.8-3.7-11.2-6.8-22.4-8.7-33.8-2-11.4-2.8-23-1.9-34.9,0-1.4-.6-2.2-1.4-1.8Z"/>
  <path d="M349.3,55.6c4.3-7.2,2.2-13.9-2.2-20.5-4.7,5.8,1.9,12.5-.3,18,0,1.4,1.2,2.4,2.5,2.5Z"/>
  <path d="M330.5,309.3c12.5-9.3,18.5-27.3,17.5-42.3-4-52-10-102,0-156,3-11,2-21,1-32-1,9-1,18-4,27-17,55-11,109-9,165,1,11-2,24-10.6,32.3-.4,1.3,1.9,4,5,6Z"/>
  <path d="M675.2,429c-33.2,68-79.2,143-61.2,222-9-78,27-152,61.6-219.2.8-1.5.5-2.7-.4-2.9Z"/>
  <path d="M682.4,414.5c7.9-9.7,12.7-20.3,13.7-32.8-7,6.5-8.1,19.6-14.4,30.1-.6,1.3-.3,2.4.7,2.6Z"/>
  <path d="M106.8,946.7c-10.8,19.3-11.8,42.3-8.8,63.3,4-20,3-41,9.9-60.9.4-1.2-.1-2.2-1.1-2.4Z"/>
  <path d="M113.9,928.3c-4.2,2.7-5.7,7.7-5.5,13.1,5.2-1.5,4.2-7,6.4-10.7.5-1.1,0-2.2-.8-2.4Z"/>
  <path d="M46.4,516.7c-.4,6.3-3.4,11.3-1.4,17.3,26,72,20,148,25,223,.5,9.5,2.5,18.5,5.1,27.4,2.6,8.9,5.9,17.8,8.9,27.1-3-16.3-6.1-31.4-7.1-47.5-1.2-13.7-1.9-27.4-2.6-41.1-3-68.5-1.8-137.1-23.8-202.9-.5-1.7-2.4-3.1-4.2-3.3Z"/>
  <path d="M40.2,430.3c-8.2,18.7-11.2,40.7-1.2,59.7,4-19-7-40,3-57.6.3-1.2-.5-2.1-1.8-2.2Z"/>
  <path d="M48.3,342.1c-4.5,8.3-4.6,16.8-.3,21.7,7.1-8.4.6-12.9,2.9-19.9,0-1.2-1.2-2-2.6-1.8Z"/>
  <path d="M46.6,371.5c-5.3,14.3-11.4,28.5-16,42.9-4.6,14.4-7.6,29.1-6.6,44.6,4-14,7.8-28.2,11.7-42.5,4-14.3,8.1-28.7,12.9-43.1.3-1.2-.7-2-2-1.9Z"/>
  <path d="M478,121.4c0-21.4-1-42.4-5-62.4-3,20,2,40,2.8,59.9.2,1.4,1.2,2.4,2.1,2.5Z"/>
  <path d="M473.4,55.1c2.5-2.8,1.8-7.8,1.8-12.6-4.9-1.3-3.6,6.6-3.6,10,0,1.5.8,2.6,1.9,2.6Z"/>
  <path d="M283,67.3c4.2-3.6,5.9-8.8,1-9.7s-1.7,5.1-3.6,7.6c-.2,1.2,1.1,2,2.7,2.1Z"/>
  <path d="M265.2,113.3c13.8-10.3,17.8-27.3,17.8-43.3-8,13-9,29-20.1,41.4-.5.8.6,1.6,2.3,1.9Z"/>
  <path d="M205.3,95.1c6.4-7.8,10-15.8,7.6-24.7-8,7.8-5.6,15.6-9.5,23.2-.4.9.6,1.5,2,1.4Z"/>
  <path d="M172.5,212.2c-.5-39.2,15.5-75.2,29.5-110.2-20,32-33,71-31.3,109.3,0,1.1.8,1.5,1.8,1Z"/>
  <path d="M168.6,339.5c3.5-11.9,3.3-28.8,1.4-40.7-3.1,13.7-1.6,26-2.6,37.6-.1,2.3.4,3.6,1.2,3.1Z"/>
  <path d="M186,499.2c-22-44.2-22-95.2-18-143.2-9,46-10,98,14.8,140.1.9,1.8,2.3,3.1,3.2,3.1Z"/>
  <path d="M266.3,752.6c-6.3,7-10.9,14.7-8.2,25.1,6.1-6.6,7.4-14.8,9.8-22.3.5-1.3-.2-2.5-1.6-2.8Z"/>
  <path d="M255.9,787.6c-4.9,53.4-5.9,109.4,14.1,160.4-6-52-17-104-12-157.1.3-1.7-.7-3.1-2.1-3.3Z"/>
  <path d="M613.1,539.6c32.9-87.6,102.9-176.6,72.9-275.6,19,98-36,186-73.1,272.1-.8,2.2-.6,3.6.2,3.5Z"/>
  <path d="M684.5,242.8c2.5-21.8.5-46.8-8.5-66.8-2,4-2,8-1,12,6,18,6,35,7,52.6,0,1.2,1.2,2.2,2.5,2.2Z"/>
  <path d="M74,176.7c11.9-4,21.8-16.5,22.4-27.4.6-10.9-9-17.6-21.6-15.3s-22.9,13.6-23,26.1,9.9,20.2,22.1,16.7Z"/>
  <path d="M88.1,283.8c22.9-25.8,6.9-59.8,1.9-90.8-2-11-21-4-28,4-19,23-7,52,.7,76,3.8,11.9,15.5,17,25.4,10.7Z"/>
  <path d="M327.3,852.4c-14.3-3.4-30.3,2.6-30.3,19.6-1,14,3,28,14,36,15,11,35,11,49-1,10-10,18-22,16-36-1-9-12-9-18.6-12.6-9.1-2.9-19.9-5.3-30.1-6Z"/>
  <path d="M334.6,786.7c-11.6-5.7-30.6-6.7-37.6,6.3-10,18,7,36,22,42,18,8,42-1,47.7-20.6,1.6-12.3-12.9-23.2-32.1-27.6Z"/>
  <path d="M197.3,798.6c-1.3-5.6,1.7-12.6-3.3-16.6-4,59,7,117,5,176-1,7-2,14-4,21,15-55-4-113-.2-169.7,1.5-3,2.3-6.8,2.5-10.7Z"/>
  <path d="M25.8,951.4s.1-.3,0,0Z"/>
  <path d="M51,880.6c0-1.6-1-3.6-1-4.6,1-6,9-9,11-14,1-4-1-8,0-12,0-9.5,2.3-21.5,1.9-32.4-.4-10.9-3.4-20.6-13.9-25.6,3,4,8,9,7,14,0,11,4,18,5,28,1,3-5,5-4,8,2,13-5,24-9.6,35.1-2.2,4,3.9,8.8-.1,13.8-9.8,8.2-10.3,18.1-13.6,28.1-4.2,11.1-13.3,18.3-12.3,31.3.2,6-9.3,8.3-11,15.3,11.7-5.3,15.7-16.5,15.4-28.4.2-8,13-11.5,12.5-20.3.2-6.9-.4-14.8,5.8-18.8,6.5-5,9.6-12.8,6.9-17.5Z"/>
  <path d="M698.3,91c-1.3-5-5.3-7-9.3-10-1-2-2-4-2-6,4-10,2-22-9-27,1,6,9,10,8,14-5,15,5,21,9,33,1,2-2,5-2,8,1,9,15,12,13,20-3,12,8,18,11,26,3,6-4,12,1,17,9,7,10,15,8,26,6,10,10,18,3,29,12-6,4-20,2-29,0-12-8-20-8-29-1-14-12-21-14-33-1-3,2-7,1-10-2-6-9-8-12-13-2-3-1-5-.3-7.6,1.6-2.3,1.7-5.2.6-8.3Z"/>
  <path d="M276.9,402.1c6.1,8.9-3.9,18.9,2.1,27.9,3-31,10-62,16.8-92,2.4-10.2,4.8-20.5,7-30.7,4.4-20.6,7.9-41.2,9.3-62.2,0-10-3-22-15-25,5,3,8,8,7,12-4,10-4,18-3,28,1.5,19.5-4,38.5-9.6,57.8s-5.7,19.3-7.7,29.1-3.1,19.7-2.5,29.8c0,0-2,0-4-1-9.4,4.7-9.5,17-.4,26.3Z"/>
  <path d="M678.2,870.3c-5.2-7.3,4.3-11.8,5.3-17.7,1.9-5.9.7-14-6.2-18.3-.8,4,3.1,7.1,4.2,11.2,2,10.1-12.2,14.3-6.6,23.6,4.7,9.3-1,15-5.8,20.7-3.8,5.8,1.8,11.2,1.7,17.3.9,7.1-9.6,10.5-7.9,16.8,4.6,14.6-7.2,22.1-4.5,32.5,3.8,13.5-7.2,21.3-3.3,30.6,3.9,11.1,1.9,18.1-3.1,27.1,6,1,6-8,9-12,4-6-5-11.1-3.9-17.1,1.9-6.9,8.9-13.9,4.9-20.9-5-10,3-16,6-24,1-3-2-7-1-10,1-13,12-22,4-35-1-3,2-6,4.1-7.6,5.5-4.6,6.9-12.2,3.1-17.2Z"/>
  <path d="M175.1,766.3c-1.1-4.3-6.1-5.3-10.1-5.3s-6,4-7,6c-8,19-12,39-9,59,2,15,5,43,23,38,10-2,7-16,7-26-1-18-6-36-2.7-54.1,1.1-7.5.6-13.6-1.1-17.6Z"/>
  <path d="M594.5,106.5c3.5,10.5,14.5,17.5,24.5,17.5,6,1,15-1,14-7-7-39,3-83-23-115-39,18-17,71-15.5,104.2,0,0,0,.2,0,.4Z"/>
</svg>